<?xml version="1.0" encoding="UTF-8" standalone="no"?>
<!DOCTYPE svg PUBLIC "-//W3C//DTD SVG 1.1//EN" "http://www.w3.org/Graphics/SVG/1.1/DTD/svg11.dtd">
<svg width="100%" height="100%" viewBox="0 0 267 146" version="1.1" xmlns="http://www.w3.org/2000/svg" xmlns:xlink="http://www.w3.org/1999/xlink" xml:space="preserve" xmlns:serif="http://www.serif.com/" style="fill-rule:evenodd;clip-rule:evenodd;stroke-linejoin:round;stroke-miterlimit:1.41421;">
    <g transform="matrix(1,0,0,1,4.44089e-15,0.01775)">
        <path d="M86.636,53.885C86.916,53.885 87.196,54.025 87.406,54.235C87.616,54.445 87.755,54.725 87.755,55.005C87.755,55.634 87.266,56.124 86.636,56.124L84.746,56.124C84.466,56.124 84.186,55.984 83.977,55.774C83.767,55.564 83.627,55.285 83.627,55.005C83.627,54.375 84.117,53.885 84.746,53.885L86.636,53.885Z" style="fill-rule:nonzero;"/>
    </g>
    <g transform="matrix(1,0,0,1,4.44089e-15,0.01775)">
        <path d="M82.507,50.176L83.907,48.776C84.117,48.566 84.396,48.426 84.676,48.426C84.956,48.426 85.236,48.566 85.446,48.776C85.866,49.196 85.866,49.896 85.446,50.386L84.047,51.786C83.837,51.995 83.557,52.135 83.277,52.135C82.997,52.135 82.717,51.995 82.507,51.786C82.017,51.296 82.017,50.596 82.507,50.176Z" style="fill-rule:nonzero;"/>
    </g>
    <g transform="matrix(1,0,0,1,4.44089e-15,0.01775)">
        <path d="M78.378,45.067C78.378,44.438 78.868,43.948 79.498,43.948C79.778,43.948 80.058,44.088 80.268,44.298C80.478,44.508 80.617,44.787 80.617,45.067L80.617,50.106C80.617,50.736 80.128,51.226 79.498,51.226C79.218,51.226 78.938,51.086 78.728,50.876C78.518,50.666 78.378,50.386 78.378,50.106L78.378,45.067Z" style="fill-rule:nonzero;"/>
    </g>
    <g transform="matrix(1,0,0,1,4.44089e-15,0.01775)">
        <path d="M73.2,48.706C73.409,48.496 73.689,48.356 73.969,48.356C74.249,48.356 74.529,48.496 74.739,48.706L76.139,50.106C76.559,50.526 76.559,51.226 76.139,51.716C75.929,51.925 75.649,52.065 75.369,52.065C75.089,52.065 74.809,51.925 74.599,51.716L73.2,50.316C72.78,49.896 72.78,49.196 73.2,48.706Z" style="fill-rule:nonzero;"/>
    </g>
    <g transform="matrix(1,0,0,1,4.44089e-15,0.01775)">
        <path d="M72.5,53.885L74.389,53.885C75.019,53.885 75.509,54.375 75.509,55.005C75.509,55.634 75.019,56.124 74.389,56.124L72.5,56.124C72.22,56.124 71.94,55.984 71.73,55.774C71.52,55.564 71.38,55.285 71.38,55.005C71.38,54.375 71.87,53.885 72.5,53.885Z" style="fill-rule:nonzero;"/>
    </g>
    <g transform="matrix(1,0,0,1,4.44089e-15,0.01775)">
        <path d="M72.01,66.551C72.01,72.57 67.951,76.559 61.723,76.559L55.494,76.559L55.494,56.544L61.723,56.544C67.951,56.544 72.01,60.463 72.01,66.551ZM58.434,59.273C58.504,59.413 58.504,59.623 58.504,59.973L58.504,73.06C58.504,73.409 58.504,73.619 58.434,73.759L58.504,73.829C58.714,73.759 58.854,73.689 59.203,73.689L61.863,73.689C66.271,73.689 68.861,71.03 68.861,66.481C68.861,61.933 66.202,59.273 61.863,59.273L59.203,59.273C58.854,59.343 58.644,59.343 58.434,59.273Z" style="fill-rule:nonzero;"/>
    </g>
    <g transform="matrix(1,0,0,1,4.44089e-15,0.01775)">
        <rect x="77.818" y="56.544" width="2.939" height="19.944"/>
    </g>
    <g transform="matrix(1,0,0,1,4.44089e-15,0.01775)">
        <path d="M104.761,58.784L102.731,61.233C101.472,60.043 99.512,59.064 96.993,59.064C92.584,59.064 89.785,62.283 89.785,66.481C89.785,70.75 92.724,73.829 97.203,73.829C101.752,73.829 103.921,70.61 103.991,68.021L103.921,67.951C103.711,68.091 103.081,68.231 102.032,68.231L97.273,68.231L97.273,65.432L107.21,65.432L107.21,66.481C107.21,71.73 103.991,76.839 97.203,76.839C91.185,76.839 86.636,72.78 86.636,66.481C86.636,60.323 90.905,55.984 97.203,55.984C100.492,56.124 103.081,57.384 104.761,58.784Z" style="fill-rule:nonzero;"/>
    </g>
    <g transform="matrix(1,0,0,1,4.44089e-15,0.01775)">
        <rect x="112.599" y="56.544" width="2.939" height="19.944"/>
    </g>
    <g transform="matrix(1,0,0,1,4.44089e-15,0.01775)">
        <path d="M134.852,59.413L129.884,59.413C129.534,59.413 129.394,59.413 129.184,59.273L129.114,59.343C129.184,59.483 129.184,59.693 129.184,60.043L129.184,76.489L126.245,76.489L126.245,60.043C126.245,59.693 126.245,59.483 126.315,59.343L126.245,59.273C126.035,59.343 125.895,59.413 125.545,59.413L120.576,59.413L120.576,56.544L134.852,56.544L134.852,59.413Z" style="fill-rule:nonzero;"/>
    </g>
    <g transform="matrix(1,0,0,1,4.44089e-15,0.01775)">
        <path d="M147.589,56.124L147.869,56.124L157.386,76.489L154.027,76.489L151.718,71.24L143.81,71.24L141.5,76.489L138.141,76.489L147.589,56.124ZM146.189,68.721L149.268,68.721C150.108,68.721 150.598,68.721 150.878,68.791C150.668,68.511 150.318,68.021 149.968,67.181L148.499,63.682C148.079,62.702 147.869,61.863 147.799,61.373L147.659,61.373C147.589,61.863 147.379,62.702 146.959,63.682L145.489,67.181C145.139,68.091 144.79,68.511 144.58,68.791C144.79,68.791 145.279,68.721 146.189,68.721Z" style="fill-rule:nonzero;"/>
    </g>
    <g transform="matrix(1,0,0,1,4.44089e-15,0.01775)">
        <path d="M165.364,72.99C165.364,73.34 165.364,73.549 165.294,73.689L165.364,73.759C165.574,73.689 165.714,73.619 166.064,73.619L173.901,73.619L173.901,76.489L162.355,76.489L162.355,56.544L165.294,56.544L165.294,72.99L165.364,72.99Z" style="fill-rule:nonzero;"/>
    </g>
    <g transform="matrix(1,0,0,1,4.44089e-15,0.01775)">
        <rect x="55.564" y="90.905" width="2.939" height="19.944"/>
    </g>
    <g transform="matrix(1,0,0,1,4.44089e-15,0.01775)">
        <path d="M71.03,100.562C70.33,98.952 70.19,98.183 70.12,97.343L69.98,97.343C69.98,97.973 69.98,99.232 69.561,100.562L66.621,110.849L63.542,110.849L69.491,90.625L69.91,90.625L75.299,103.151C75.509,103.711 75.719,104.551 75.789,105.461L75.929,105.461C75.999,104.551 76.209,103.711 76.419,103.151L81.807,90.625L82.227,90.625L88.175,110.849L85.096,110.849L82.157,100.562C81.737,99.232 81.737,97.973 81.737,97.343L81.597,97.343C81.527,98.183 81.387,98.882 80.687,100.562L76.069,111.059L75.789,111.059L71.03,100.562Z" style="fill-rule:nonzero;"/>
    </g>
    <g transform="matrix(1,0,0,1,4.44089e-15,0.01775)">
        <path d="M100.772,90.485L101.052,90.485L110.569,110.849L107.21,110.849L104.901,105.601L96.993,105.601L94.684,110.849L91.324,110.849L100.772,90.485ZM99.372,103.081L102.451,103.081C103.291,103.081 103.781,103.081 104.061,103.151C103.851,102.871 103.501,102.381 103.151,101.542L101.682,98.043C101.262,97.063 101.052,96.223 100.982,95.733L100.842,95.733C100.772,96.223 100.562,97.063 100.142,98.043L98.672,101.542C98.323,102.451 97.973,102.871 97.763,103.151C98.043,103.151 98.532,103.081 99.372,103.081Z" style="fill-rule:nonzero;"/>
    </g>
    <g transform="matrix(1,0,0,1,4.44089e-15,0.01775)">
        <path d="M132.683,93.144L130.654,95.593C129.394,94.404 127.434,93.424 124.915,93.424C120.506,93.424 117.707,96.643 117.707,100.842C117.707,105.111 120.646,108.19 125.125,108.19C129.674,108.19 131.843,104.971 131.913,102.381L131.843,102.311C131.633,102.451 131.003,102.591 129.954,102.591L125.195,102.591L125.195,99.792L135.062,99.792L135.062,100.842C135.062,106.09 131.843,111.199 125.055,111.199C119.037,111.199 114.488,107.14 114.488,100.842C114.488,94.684 118.757,90.345 125.055,90.345C128.414,90.485 131.003,91.744 132.683,93.144Z" style="fill-rule:nonzero;"/>
    </g>
    <g transform="matrix(1,0,0,1,4.44089e-15,0.01775)">
        <rect x="140.521" y="90.905" width="2.939" height="19.944"/>
    </g>
    <g transform="matrix(1,0,0,1,4.44089e-15,0.01775)">
        <path d="M162.775,102.801C163.474,103.501 164.104,104.411 164.314,105.041L164.454,105.041C164.314,104.411 164.174,103.081 164.174,101.472L164.174,90.975L167.113,90.975L167.113,111.199L166.833,111.199L154.657,99.022C153.957,98.323 153.327,97.413 153.117,96.783L152.977,96.783C153.117,97.413 153.257,98.742 153.257,100.352L153.257,110.849L150.318,110.849L150.318,90.625L150.598,90.625L162.775,102.801Z" style="fill-rule:nonzero;"/>
    </g>
    <g transform="matrix(1,0,0,1,4.44089e-15,0.01775)">
        <path d="M181.669,90.485L181.949,90.485L191.467,110.849L188.107,110.849L185.798,105.601L177.89,105.601L175.581,110.849L172.222,110.849L181.669,90.485ZM180.27,103.081L183.349,103.081C184.189,103.081 184.678,103.081 184.958,103.151C184.748,102.871 184.398,102.381 184.049,101.542L182.579,98.043C182.159,97.063 181.949,96.223 181.879,95.733L181.739,95.733C181.669,96.223 181.459,97.063 181.039,98.043L179.57,101.542C179.22,102.451 178.87,102.871 178.66,103.151C178.94,103.151 179.43,103.081 180.27,103.081Z" style="fill-rule:nonzero;"/>
    </g>
    <g transform="matrix(1,0,0,1,4.44089e-15,0.01775)">
        <path d="M208.962,93.774L203.993,93.774C203.643,93.774 203.503,93.774 203.293,93.634L203.223,93.704C203.293,93.844 203.293,94.054 203.293,94.404L203.293,110.849L200.354,110.849L200.354,94.404C200.354,94.054 200.354,93.844 200.424,93.704L200.354,93.634C200.144,93.704 200.004,93.774 199.654,93.774L194.686,93.774L194.686,90.905L208.962,90.905L208.962,93.774Z" style="fill-rule:nonzero;"/>
    </g>
    <g transform="matrix(1,0,0,1,4.44089e-15,0.01775)">
        <rect x="214" y="90.905" width="2.939" height="19.944"/>
    </g>
    <g transform="matrix(1,0,0,1,4.44089e-15,0.01775)">
        <path d="M243.532,100.912C243.532,106.93 239.193,111.339 233.105,111.339C227.087,111.339 222.678,107 222.678,100.912C222.678,94.824 227.017,90.485 233.105,90.485C239.193,90.485 243.532,94.824 243.532,100.912ZM225.967,100.912C225.967,105.251 228.906,108.33 233.105,108.33C237.304,108.33 240.243,105.251 240.243,100.912C240.243,96.573 237.304,93.494 233.105,93.494C228.906,93.494 225.967,96.573 225.967,100.912Z" style="fill-rule:nonzero;"/>
    </g>
    <g transform="matrix(1,0,0,1,4.44089e-15,0.01775)">
        <path d="M261.727,102.801C262.427,103.501 263.057,104.411 263.266,105.041L263.406,105.041C263.266,104.411 263.127,103.081 263.127,101.472L263.127,90.975L266.066,90.975L266.066,111.199L265.786,111.199L253.609,99.022C252.909,98.323 252.28,97.413 252.07,96.783L251.93,96.783C252.07,97.413 252.21,98.742 252.21,100.352L252.21,110.849L249.27,110.849L249.27,90.625L249.55,90.625L261.727,102.801Z" style="fill-rule:nonzero;"/>
    </g>
    <g transform="matrix(1,0,0,1,4.44089e-15,0.01775)">
        <path d="M54.235,133.733C54.235,126.735 59.413,121.696 66.761,121.696C69.84,121.696 72.78,122.606 75.159,124.285L72.57,128.414C70.75,127.224 68.861,126.665 66.831,126.665C62.563,126.665 59.623,129.534 59.623,133.733C59.623,137.931 62.563,140.801 66.831,140.801C68.791,140.801 70.68,140.241 72.57,139.051L75.159,143.18C72.78,144.86 69.84,145.769 66.761,145.769C59.413,145.769 54.235,140.731 54.235,133.733Z" style="fill-rule:nonzero;"/>
    </g>
    <g transform="matrix(1,0,0,1,4.44089e-15,0.01775)">
        <path d="M100.982,145.279L95.873,145.279L95.873,136.322C95.873,135.832 95.943,135.482 96.013,135.342L95.943,135.272C95.733,135.342 95.523,135.412 95.033,135.412L86.986,135.412C86.426,135.412 86.216,135.342 86.076,135.272L86.006,135.342C86.076,135.482 86.146,135.902 86.146,136.322L86.146,145.279L81.037,145.279L81.037,122.186L86.146,122.186L86.146,129.814C86.146,130.304 86.076,130.654 86.006,130.863L86.076,130.933C86.216,130.863 86.496,130.793 86.986,130.793L95.033,130.793C95.523,130.793 95.733,130.863 95.943,130.933L96.013,130.863C95.943,130.723 95.873,130.304 95.873,129.814L95.873,122.186L100.982,122.186L100.982,145.279Z" style="fill-rule:nonzero;"/>
    </g>
    <g transform="matrix(1,0,0,1,4.44089e-15,0.01775)">
        <path d="M117.707,121.696L118.757,121.696L130.164,145.209L124.565,145.209L122.396,140.381L114.138,140.381L111.969,145.209L106.37,145.209L117.707,121.696ZM116.797,136.602L119.737,136.602C120.436,136.602 120.856,136.602 121.206,136.742C120.926,136.392 120.646,135.902 120.296,135.202L118.967,132.053C118.477,130.933 118.267,130.234 118.267,129.674L118.127,129.674C118.127,130.234 117.917,130.933 117.427,132.053L116.098,135.202C115.748,135.902 115.468,136.392 115.188,136.742C115.678,136.672 116.098,136.602 116.797,136.602Z" style="fill-rule:nonzero;"/>
    </g>
    <g transform="matrix(1,0,0,1,4.44089e-15,0.01775)">
        <path d="M140.661,139.681C140.661,140.171 140.591,140.521 140.521,140.661L140.591,140.731C140.731,140.661 141.011,140.591 141.5,140.591L149.968,140.591L149.968,145.209L135.622,145.209L135.622,122.116L140.731,122.116L140.731,139.681L140.661,139.681Z" style="fill-rule:nonzero;"/>
    </g>
    <g transform="matrix(1,0,0,1,4.44089e-15,0.01775)">
        <path d="M160.395,139.681C160.395,140.171 160.325,140.521 160.255,140.661L160.325,140.731C160.465,140.661 160.745,140.591 161.235,140.591L169.703,140.591L169.703,145.209L155.357,145.209L155.357,122.116L160.465,122.116L160.465,139.681L160.395,139.681Z" style="fill-rule:nonzero;"/>
    </g>
    <g transform="matrix(1,0,0,1,4.44089e-15,0.01775)">
        <path d="M189.367,126.735L180.969,126.735C180.41,126.735 180.2,126.665 180.06,126.595L179.99,126.665C180.06,126.805 180.13,127.224 180.13,127.644L180.13,129.954C180.13,130.444 180.06,130.793 179.99,131.003L180.06,131.073C180.2,131.003 180.48,130.933 180.969,130.933L188.457,130.933L188.457,135.412L180.969,135.412C180.41,135.412 180.2,135.342 180.06,135.272L179.99,135.342C180.06,135.482 180.13,135.902 180.13,136.322L180.13,139.891C180.13,140.311 180.06,140.731 179.99,140.871L180.06,140.941C180.2,140.871 180.48,140.801 180.969,140.801L189.507,140.801L189.507,145.349L175.091,145.349L175.091,122.256L189.437,122.256L189.437,126.735L189.367,126.735Z" style="fill-rule:nonzero;"/>
    </g>
    <g transform="matrix(1,0,0,1,4.44089e-15,0.01775)">
        <path d="M209.172,133.873C210.011,134.712 210.361,135.202 210.711,135.902L210.851,135.902C210.641,135.132 210.501,133.943 210.501,131.843L210.501,122.116L215.54,122.116L215.54,145.559L214.42,145.559L202.383,133.523C201.544,132.683 201.264,132.193 200.844,131.423L200.704,131.423C200.984,132.193 201.124,133.383 201.124,135.482L201.124,145.209L196.085,145.209L196.085,121.766L197.205,121.766L209.172,133.873Z" style="fill-rule:nonzero;"/>
    </g>
    <g transform="matrix(1,0,0,1,4.44089e-15,0.01775)">
        <path d="M242.972,124.495L240.103,128.624C238.353,127.364 236.044,126.525 233.875,126.525C229.676,126.525 226.877,129.394 226.877,133.523C226.877,137.861 229.606,140.731 233.805,140.731C238.143,140.731 239.823,138.281 240.103,135.902L240.033,135.832C239.613,136.112 238.843,136.182 237.934,136.182L233.735,136.182L233.735,131.913L245.212,131.913L245.212,132.963C245.212,140.241 241.573,145.699 233.945,145.699C226.667,145.699 221.698,140.871 221.698,133.593C221.698,126.455 226.667,121.556 234.155,121.556C237.444,121.626 240.383,122.676 242.972,124.495Z" style="fill-rule:nonzero;"/>
    </g>
    <g transform="matrix(1,0,0,1,4.44089e-15,0.01775)">
        <path d="M265.506,126.735L257.108,126.735C256.548,126.735 256.338,126.665 256.198,126.595L256.128,126.665C256.198,126.805 256.268,127.224 256.268,127.644L256.268,129.954C256.268,130.444 256.198,130.793 256.128,131.003L256.198,131.073C256.338,131.003 256.618,130.933 257.108,130.933L264.596,130.933L264.596,135.412L257.108,135.412C256.548,135.412 256.338,135.342 256.198,135.272L256.128,135.342C256.198,135.482 256.268,135.902 256.268,136.322L256.268,139.891C256.268,140.311 256.198,140.731 256.128,140.871L256.198,140.941C256.338,140.871 256.618,140.801 257.108,140.801L265.646,140.801L265.646,145.349L251.23,145.349L251.23,122.256L265.576,122.256L265.576,126.735L265.506,126.735Z" style="fill-rule:nonzero;"/>
    </g>
    <g transform="matrix(1,0,0,1,4.44089e-15,0.01775)">
        <path d="M49.546,121.906L46.677,121.766C46.817,119.037 41.079,115.328 38.279,113.928L38.209,113.858L7.418,96.083C2.869,93.424 0,88.455 0,83.137L0,39.679C0,34.36 2.869,29.392 7.488,26.733L50.316,2.029C54.935,-0.7 60.673,-0.7 65.292,2.029L108.12,26.803C112.039,29.112 114.698,33.031 115.398,37.44C115.538,38.209 115.608,50.246 115.608,51.016L112.739,51.016C112.739,50.246 112.669,38.209 112.529,37.44C111.899,34.011 109.729,31.001 106.72,29.252L63.822,4.479C60.113,2.309 55.494,2.309 51.716,4.479L8.888,29.182C5.179,31.351 2.869,35.34 2.869,39.679L2.869,83.137C2.869,87.476 5.179,91.464 8.888,93.634L39.609,111.409C40.869,111.969 49.896,116.587 49.546,121.906Z" style="fill-rule:nonzero;"/>
    </g>
    <g transform="matrix(1,0,0,1,4.44089e-15,0.01775)">
        <rect x="42.898" y="126.315" width="6.508" height="2.869"/>
    </g>
    <g transform="matrix(1,0,0,1,4.44089e-15,0.01775)">
        <rect x="42.898" y="134.362" width="6.508" height="2.869"/>
    </g>
    <g transform="matrix(1,0,0,1,4.44089e-15,0.01775)">
        <rect x="42.898" y="142.41" width="6.508" height="2.869"/>
    </g>
</svg>
