<?xml version="1.0" encoding="UTF-8" standalone="no"?><!DOCTYPE svg PUBLIC "-//W3C//DTD SVG 1.1//EN" "http://www.w3.org/Graphics/SVG/1.1/DTD/svg11.dtd"><svg width="100%" height="100%" viewBox="0 0 267 165" version="1.1" xmlns="http://www.w3.org/2000/svg" xmlns:xlink="http://www.w3.org/1999/xlink" xml:space="preserve" xmlns:serif="http://www.serif.com/" style="fill-rule:evenodd;clip-rule:evenodd;stroke-linejoin:round;stroke-miterlimit:1.41421;"><clipPath id="_clip1"><rect id="DIChallenge" x="0" y="0" width="266.066" height="145.769"/></clipPath><g clip-path="url(#_clip1)"><path d="M86.636,53.885c0.28,0 0.56,0.14 0.77,0.35c0.21,0.21 0.349,0.49 0.349,0.77c0,0.629 -0.489,1.119 -1.119,1.119l-1.89,0c-0.28,0 -0.56,-0.14 -0.769,-0.35c-0.21,-0.21 -0.35,-0.489 -0.35,-0.769c0,-0.63 0.49,-1.12 1.119,-1.12l1.89,0Z" style="fill-rule:nonzero;"/><path d="M82.507,50.176l1.4,-1.4c0.21,-0.21 0.489,-0.35 0.769,-0.35c0.28,0 0.56,0.14 0.77,0.35c0.42,0.42 0.42,1.12 0,1.61l-1.399,1.4c-0.21,0.209 -0.49,0.349 -0.77,0.349c-0.28,0 -0.56,-0.14 -0.77,-0.349c-0.49,-0.49 -0.49,-1.19 0,-1.61Z" style="fill-rule:nonzero;"/><path d="M78.378,45.067c0,-0.629 0.49,-1.119 1.12,-1.119c0.28,0 0.56,0.14 0.77,0.35c0.21,0.21 0.349,0.489 0.349,0.769l0,5.039c0,0.63 -0.489,1.12 -1.119,1.12c-0.28,0 -0.56,-0.14 -0.77,-0.35c-0.21,-0.21 -0.35,-0.49 -0.35,-0.77l0,-5.039Z" style="fill-rule:nonzero;"/><path d="M73.2,48.706c0.209,-0.21 0.489,-0.35 0.769,-0.35c0.28,0 0.56,0.14 0.77,0.35l1.4,1.4c0.42,0.42 0.42,1.12 0,1.61c-0.21,0.209 -0.49,0.349 -0.77,0.349c-0.28,0 -0.56,-0.14 -0.77,-0.349l-1.399,-1.4c-0.42,-0.42 -0.42,-1.12 0,-1.61Z" style="fill-rule:nonzero;"/><path d="M72.5,53.885l1.889,0c0.63,0 1.12,0.49 1.12,1.12c0,0.629 -0.49,1.119 -1.12,1.119l-1.889,0c-0.28,0 -0.56,-0.14 -0.77,-0.35c-0.21,-0.21 -0.35,-0.489 -0.35,-0.769c0,-0.63 0.49,-1.12 1.12,-1.12Z" style="fill-rule:nonzero;"/><path d="M72.01,66.551c0,6.019 -4.059,10.008 -10.287,10.008l-6.229,0l0,-20.015l6.229,0c6.228,0 10.287,3.919 10.287,10.007Zm-13.576,-7.278c0.07,0.14 0.07,0.35 0.07,0.7l0,13.087c0,0.349 0,0.559 -0.07,0.699l0.07,0.07c0.21,-0.07 0.35,-0.14 0.699,-0.14l2.66,0c4.408,0 6.998,-2.659 6.998,-7.208c0,-4.548 -2.659,-7.208 -6.998,-7.208l-2.66,0c-0.349,0.07 -0.559,0.07 -0.769,0Z" style="fill-rule:nonzero;"/><rect x="77.818" y="56.544" width="2.939" height="19.944" style="fill-rule:nonzero;"/><path d="M104.761,58.784l-2.03,2.449c-1.259,-1.19 -3.219,-2.169 -5.738,-2.169c-4.409,0 -7.208,3.219 -7.208,7.417c0,4.269 2.939,7.348 7.418,7.348c4.549,0 6.718,-3.219 6.788,-5.808l-0.07,-0.07c-0.21,0.14 -0.84,0.28 -1.889,0.28l-4.759,0l0,-2.799l9.937,0l0,1.049c0,5.249 -3.219,10.358 -10.007,10.358c-6.018,0 -10.567,-4.059 -10.567,-10.358c0,-6.158 4.269,-10.497 10.567,-10.497c3.289,0.14 5.878,1.4 7.558,2.8Z" style="fill-rule:nonzero;"/><rect x="112.599" y="56.544" width="2.939" height="19.944" style="fill-rule:nonzero;"/><path d="M134.852,59.413l-4.968,0c-0.35,0 -0.49,0 -0.7,-0.14l-0.07,0.07c0.07,0.14 0.07,0.35 0.07,0.7l0,16.446l-2.939,0l0,-16.446c0,-0.35 0,-0.56 0.07,-0.7l-0.07,-0.07c-0.21,0.07 -0.35,0.14 -0.7,0.14l-4.969,0l0,-2.869l14.276,0l0,2.869Z" style="fill-rule:nonzero;"/><path d="M147.589,56.124l0.28,0l9.517,20.365l-3.359,0l-2.309,-5.249l-7.908,0l-2.31,5.249l-3.359,0l9.448,-20.365Zm-1.4,12.597l3.079,0c0.84,0 1.33,0 1.61,0.07c-0.21,-0.28 -0.56,-0.77 -0.91,-1.61l-1.469,-3.499c-0.42,-0.98 -0.63,-1.819 -0.7,-2.309l-0.14,0c-0.07,0.49 -0.28,1.329 -0.7,2.309l-1.47,3.499c-0.35,0.91 -0.699,1.33 -0.909,1.61c0.21,0 0.699,-0.07 1.609,-0.07Z" style="fill-rule:nonzero;"/><path d="M165.364,72.99c0,0.35 0,0.559 -0.07,0.699l0.07,0.07c0.21,-0.07 0.35,-0.14 0.7,-0.14l7.837,0l0,2.87l-11.546,0l0,-19.945l2.939,0l0,16.446l0.07,0Z" style="fill-rule:nonzero;"/><rect x="55.564" y="90.905" width="2.939" height="19.944" style="fill-rule:nonzero;"/><path d="M71.03,100.562c-0.7,-1.61 -0.84,-2.379 -0.91,-3.219l-0.14,0c0,0.63 0,1.889 -0.419,3.219l-2.94,10.287l-3.079,0l5.949,-20.224l0.419,0l5.389,12.526c0.21,0.56 0.42,1.4 0.49,2.31l0.14,0c0.07,-0.91 0.28,-1.75 0.49,-2.31l5.388,-12.526l0.42,0l5.948,20.224l-3.079,0l-2.939,-10.287c-0.42,-1.33 -0.42,-2.589 -0.42,-3.219l-0.14,0c-0.07,0.84 -0.21,1.539 -0.91,3.219l-4.618,10.497l-0.28,0l-4.759,-10.497Z" style="fill-rule:nonzero;"/><path d="M100.772,90.485l0.28,0l9.517,20.364l-3.359,0l-2.309,-5.248l-7.908,0l-2.309,5.248l-3.36,0l9.448,-20.364Zm-1.4,12.596l3.079,0c0.84,0 1.33,0 1.61,0.07c-0.21,-0.28 -0.56,-0.77 -0.91,-1.609l-1.469,-3.499c-0.42,-0.98 -0.63,-1.82 -0.7,-2.31l-0.14,0c-0.07,0.49 -0.28,1.33 -0.7,2.31l-1.47,3.499c-0.349,0.909 -0.699,1.329 -0.909,1.609c0.28,0 0.769,-0.07 1.609,-0.07Z" style="fill-rule:nonzero;"/><path d="M132.683,93.144l-2.029,2.449c-1.26,-1.189 -3.22,-2.169 -5.739,-2.169c-4.409,0 -7.208,3.219 -7.208,7.418c0,4.269 2.939,7.348 7.418,7.348c4.549,0 6.718,-3.219 6.788,-5.809l-0.07,-0.07c-0.21,0.14 -0.84,0.28 -1.889,0.28l-4.759,0l0,-2.799l9.867,0l0,1.05c0,5.248 -3.219,10.357 -10.007,10.357c-6.018,0 -10.567,-4.059 -10.567,-10.357c0,-6.158 4.269,-10.497 10.567,-10.497c3.359,0.14 5.948,1.399 7.628,2.799Z" style="fill-rule:nonzero;"/><rect x="140.521" y="90.905" width="2.939" height="19.944" style="fill-rule:nonzero;"/><path d="M162.775,102.801c0.699,0.7 1.329,1.61 1.539,2.24l0.14,0c-0.14,-0.63 -0.28,-1.96 -0.28,-3.569l0,-10.497l2.939,0l0,20.224l-0.28,0l-12.176,-12.177c-0.7,-0.699 -1.33,-1.609 -1.54,-2.239l-0.14,0c0.14,0.63 0.28,1.959 0.28,3.569l0,10.497l-2.939,0l0,-20.224l0.28,0l12.177,12.176Z" style="fill-rule:nonzero;"/><path d="M181.669,90.485l0.28,0l9.518,20.364l-3.36,0l-2.309,-5.248l-7.908,0l-2.309,5.248l-3.359,0l9.447,-20.364Zm-1.399,12.596l3.079,0c0.84,0 1.329,0 1.609,0.07c-0.21,-0.28 -0.56,-0.77 -0.909,-1.609l-1.47,-3.499c-0.42,-0.98 -0.63,-1.82 -0.7,-2.31l-0.14,0c-0.07,0.49 -0.28,1.33 -0.7,2.31l-1.469,3.499c-0.35,0.909 -0.7,1.329 -0.91,1.609c0.28,0 0.77,-0.07 1.61,-0.07Z" style="fill-rule:nonzero;"/><path d="M208.962,93.774l-4.969,0c-0.35,0 -0.49,0 -0.7,-0.14l-0.07,0.07c0.07,0.14 0.07,0.35 0.07,0.7l0,16.445l-2.939,0l0,-16.445c0,-0.35 0,-0.56 0.07,-0.7l-0.07,-0.07c-0.21,0.07 -0.35,0.14 -0.7,0.14l-4.968,0l0,-2.869l14.276,0l0,2.869Z" style="fill-rule:nonzero;"/><rect x="214" y="90.905" width="2.939" height="19.944" style="fill-rule:nonzero;"/><path d="M243.532,100.912c0,6.018 -4.339,10.427 -10.427,10.427c-6.018,0 -10.427,-4.339 -10.427,-10.427c0,-6.088 4.339,-10.427 10.427,-10.427c6.088,0 10.427,4.339 10.427,10.427Zm-17.565,0c0,4.339 2.939,7.418 7.138,7.418c4.199,0 7.138,-3.079 7.138,-7.418c0,-4.339 -2.939,-7.418 -7.138,-7.418c-4.199,0 -7.138,3.079 -7.138,7.418Z" style="fill-rule:nonzero;"/><path d="M261.727,102.801c0.7,0.7 1.33,1.61 1.539,2.24l0.14,0c-0.14,-0.63 -0.279,-1.96 -0.279,-3.569l0,-10.497l2.939,0l0,20.224l-0.28,0l-12.177,-12.177c-0.7,-0.699 -1.329,-1.609 -1.539,-2.239l-0.14,0c0.14,0.63 0.28,1.959 0.28,3.569l0,10.497l-2.94,0l0,-20.224l0.28,0l12.177,12.176Z" style="fill-rule:nonzero;"/><path d="M54.235,133.733c0,-6.998 5.178,-12.037 12.526,-12.037c3.079,0 6.019,0.91 8.398,2.589l-2.589,4.129c-1.82,-1.19 -3.709,-1.749 -5.739,-1.749c-4.268,0 -7.208,2.869 -7.208,7.068c0,4.198 2.94,7.068 7.208,7.068c1.96,0 3.849,-0.56 5.739,-1.75l2.589,4.129c-2.379,1.68 -5.319,2.589 -8.398,2.589c-7.348,0 -12.526,-5.038 -12.526,-12.036Z" style="fill-rule:nonzero;"/><path d="M100.982,145.279l-5.109,0l0,-8.957c0,-0.49 0.07,-0.84 0.14,-0.98l-0.07,-0.07c-0.21,0.07 -0.42,0.14 -0.91,0.14l-8.047,0c-0.56,0 -0.77,-0.07 -0.91,-0.14l-0.07,0.07c0.07,0.14 0.14,0.56 0.14,0.98l0,8.957l-5.109,0l0,-23.093l5.109,0l0,7.628c0,0.49 -0.07,0.84 -0.14,1.049l0.07,0.07c0.14,-0.07 0.42,-0.14 0.91,-0.14l8.047,0c0.49,0 0.7,0.07 0.91,0.14l0.07,-0.07c-0.07,-0.14 -0.14,-0.559 -0.14,-1.049l0,-7.628l5.109,0l0,23.093Z" style="fill-rule:nonzero;"/><path d="M117.707,121.696l1.05,0l11.407,23.513l-5.599,0l-2.169,-4.828l-8.258,0l-2.169,4.828l-5.599,0l11.337,-23.513Zm-0.91,14.906l2.94,0c0.699,0 1.119,0 1.469,0.14c-0.28,-0.35 -0.56,-0.84 -0.91,-1.54l-1.329,-3.149c-0.49,-1.12 -0.7,-1.819 -0.7,-2.379l-0.14,0c0,0.56 -0.21,1.259 -0.7,2.379l-1.329,3.149c-0.35,0.7 -0.63,1.19 -0.91,1.54c0.49,-0.07 0.91,-0.14 1.609,-0.14Z" style="fill-rule:nonzero;"/><path d="M140.661,139.681c0,0.49 -0.07,0.84 -0.14,0.98l0.07,0.07c0.14,-0.07 0.42,-0.14 0.909,-0.14l8.468,0l0,4.618l-14.346,0l0,-23.093l5.109,0l0,17.565l-0.07,0Z" style="fill-rule:nonzero;"/><path d="M160.395,139.681c0,0.49 -0.07,0.84 -0.14,0.98l0.07,0.07c0.14,-0.07 0.42,-0.14 0.91,-0.14l8.468,0l0,4.618l-14.346,0l0,-23.093l5.108,0l0,17.565l-0.07,0Z" style="fill-rule:nonzero;"/><path d="M189.367,126.735l-8.398,0c-0.559,0 -0.769,-0.07 -0.909,-0.14l-0.07,0.07c0.07,0.14 0.14,0.559 0.14,0.979l0,2.31c0,0.49 -0.07,0.839 -0.14,1.049l0.07,0.07c0.14,-0.07 0.42,-0.14 0.909,-0.14l7.488,0l0,4.479l-7.488,0c-0.559,0 -0.769,-0.07 -0.909,-0.14l-0.07,0.07c0.07,0.14 0.14,0.56 0.14,0.98l0,3.569c0,0.42 -0.07,0.84 -0.14,0.98l0.07,0.07c0.14,-0.07 0.42,-0.14 0.909,-0.14l8.538,0l0,4.548l-14.416,0l0,-23.093l14.346,0l0,4.479l-0.07,0Z" style="fill-rule:nonzero;"/><path d="M209.172,133.873c0.839,0.839 1.189,1.329 1.539,2.029l0.14,0c-0.21,-0.77 -0.35,-1.959 -0.35,-4.059l0,-9.727l5.039,0l0,23.443l-1.12,0l-12.037,-12.036c-0.839,-0.84 -1.119,-1.33 -1.539,-2.1l-0.14,0c0.28,0.77 0.42,1.96 0.42,4.059l0,9.727l-5.039,0l0,-23.443l1.12,0l11.967,12.107Z" style="fill-rule:nonzero;"/><path d="M242.972,124.495l-2.869,4.129c-1.75,-1.26 -4.059,-2.099 -6.228,-2.099c-4.199,0 -6.998,2.869 -6.998,6.998c0,4.338 2.729,7.208 6.928,7.208c4.338,0 6.018,-2.45 6.298,-4.829l-0.07,-0.07c-0.42,0.28 -1.19,0.35 -2.099,0.35l-4.199,0l0,-4.269l11.477,0l0,1.05c0,7.278 -3.639,12.736 -11.267,12.736c-7.278,0 -12.247,-4.828 -12.247,-12.106c0,-7.138 4.969,-12.037 12.457,-12.037c3.289,0.07 6.228,1.12 8.817,2.939Z" style="fill-rule:nonzero;"/><path d="M265.506,126.735l-8.398,0c-0.56,0 -0.77,-0.07 -0.91,-0.14l-0.07,0.07c0.07,0.14 0.14,0.559 0.14,0.979l0,2.31c0,0.49 -0.07,0.839 -0.14,1.049l0.07,0.07c0.14,-0.07 0.42,-0.14 0.91,-0.14l7.488,0l0,4.479l-7.488,0c-0.56,0 -0.77,-0.07 -0.91,-0.14l-0.07,0.07c0.07,0.14 0.14,0.56 0.14,0.98l0,3.569c0,0.42 -0.07,0.84 -0.14,0.98l0.07,0.07c0.14,-0.07 0.42,-0.14 0.91,-0.14l8.538,0l0,4.548l-14.416,0l0,-23.093l14.346,0l0,4.479l-0.07,0Z" style="fill-rule:nonzero;"/><path d="M49.546,121.906l-2.869,-0.14c0.14,-2.729 -5.598,-6.438 -8.398,-7.838l-0.07,-0.07l-30.791,-17.775c-4.549,-2.659 -7.418,-7.628 -7.418,-12.946l0,-43.458c0,-5.319 2.869,-10.287 7.488,-12.946l42.828,-24.704c4.619,-2.729 10.357,-2.729 14.976,0l42.828,24.774c3.919,2.309 6.578,6.228 7.278,10.637c0.14,0.769 0.21,12.806 0.21,13.576l-2.869,0c0,-0.77 -0.07,-12.807 -0.21,-13.576c-0.63,-3.429 -2.8,-6.439 -5.809,-8.188l-42.898,-24.773c-3.709,-2.17 -8.328,-2.17 -12.106,0l-42.828,24.703c-3.709,2.169 -6.019,6.158 -6.019,10.497l0,43.458c0,4.339 2.31,8.327 6.019,10.497l30.721,17.775c1.26,0.56 10.287,5.178 9.937,10.497Z" style="fill-rule:nonzero;"/><rect x="42.898" y="126.315" width="6.508" height="2.869"/><rect x="42.898" y="134.362" width="6.508" height="2.869"/><rect x="42.898" y="142.41" width="6.508" height="2.869"/></g><text x="51.886px" y="161.475px" style="font-family:'ArialMT', 'Arial', sans-serif;font-size:12px;">Scored <tspan x="93.025px 100.355px " y="161.475px 161.475px ">Th</tspan>ird for Digital Impact</text></svg>