<?xml version="1.0" encoding="UTF-8" standalone="no"?><!DOCTYPE svg PUBLIC "-//W3C//DTD SVG 1.1//EN" "http://www.w3.org/Graphics/SVG/1.1/DTD/svg11.dtd"><svg width="100%" height="100%" viewBox="0 0 503 332" version="1.1" xmlns="http://www.w3.org/2000/svg" xmlns:xlink="http://www.w3.org/1999/xlink" xml:space="preserve" xmlns:serif="http://www.serif.com/" style="fill-rule:evenodd;clip-rule:evenodd;"><g id="g4175"><ellipse id="path4785" cx="242.879" cy="133.466" rx="91.779" ry="89.335" style="fill:#0b3875;stroke:#999;stroke-width:0.41px;"/><path id="path4167" d="M221.228,58.439l-44.561,27.873l-14.677,46.28l9.798,38.06l11.169,8.072l19.008,-5.397l15.824,-27.017l19.358,-11.516l1.184,-32.076l19.553,-21.869l32.224,-8.204l-21.732,-12.93l-47.148,-1.276Zm99.462,92.58l-32.018,30.272l-30.562,11.352l-18.338,18.337c0,0 22.413,-2.038 24.45,-2.329c2.038,-0.291 22.413,-10.478 22.413,-10.478l23.867,-21.83l10.188,-25.324Zm-117.252,30.588l-18.544,5.374l22.553,15.309l-4.009,-20.683Z" style="fill:url(#_Radial1);"/><path id="path4765" d="M242.879,51.899c-46.233,0 -83.798,36.565 -83.798,81.567c0,45.002 37.565,81.566 83.798,81.566c46.233,0 83.799,-36.564 83.799,-81.566c0,-45.002 -37.566,-81.567 -83.799,-81.567Zm0,7.768c41.92,0 75.818,32.995 75.818,73.799c0,40.803 -33.898,73.798 -75.818,73.798c-41.92,0 -75.818,-32.995 -75.818,-73.798c0,-40.804 33.898,-73.799 75.818,-73.799Z" style="fill:#fff;fill-rule:nonzero;"/><path id="circle7471" d="M175.217,100.097c45.971,85.859 144.614,43.507 111.047,-27.188l8.401,-3.545l22.441,26.247c12.572,88.038 -112.822,89.932 -141.889,4.486Z" style="fill:#fff;fill-rule:nonzero;"/><path id="path23" d="M42.017,184.447c13.789,-44.909 47.297,-86.361 47.297,-86.361c48.861,-68.331 115.916,-114.846 229.98,-90.848c47.835,12.156 140.945,46.227 140.945,46.227l-59.689,17.288c0,0 -31.449,139.75 -117.48,165.601c-73.518,22.105 -155.804,5.804 -155.804,5.804c65.203,2.593 144.731,2.511 183.589,-31.696c61.169,-53.842 68.537,-130.406 69.978,-143.29c-57.312,-28.715 -138.295,-45.08 -189.805,-21.858c-62.362,31.861 -114.804,128.142 -114.804,128.142l-34.207,10.991" style="fill:#ffad00;fill-rule:nonzero;stroke:#999;stroke-width:0.41px;"/></g><g><path d="M41.962,321.922l0,-15.244l-12.545,0l0,-6.305l20.141,0l0,24.364c-2.965,2.101 -6.228,3.691 -9.802,4.767c-3.574,1.077 -7.388,1.616 -11.442,1.616c-8.867,0 -15.801,-2.589 -20.809,-7.771c-5.001,-5.183 -7.505,-12.396 -7.505,-21.646c0,-9.276 2.504,-16.502 7.505,-21.685c5.008,-5.183 11.942,-7.771 20.809,-7.771c3.697,0 7.213,0.454 10.547,1.369c3.334,0.908 6.402,2.251 9.218,4.028l0,8.173c-2.842,-2.413 -5.851,-4.223 -9.049,-5.436c-3.192,-1.219 -6.545,-1.829 -10.067,-1.829c-6.948,0 -12.156,1.94 -15.64,5.819c-3.489,3.879 -5.228,9.652 -5.228,17.332c0,7.648 1.739,13.414 5.228,17.293c3.484,3.873 8.692,5.812 15.64,5.812c2.711,0 5.131,-0.233 7.258,-0.7c2.128,-0.467 4.041,-1.2 5.741,-2.186Z" style="fill-rule:nonzero;"/><path d="M82.626,308.618c-5.65,0 -9.561,0.648 -11.741,1.939c-2.179,1.291 -3.269,3.496 -3.269,6.616c0,2.478 0.818,4.45 2.452,5.91c1.635,1.453 3.853,2.186 6.668,2.186c3.879,0 6.986,-1.375 9.328,-4.126c2.348,-2.75 3.516,-6.402 3.516,-10.969l0,-1.556l-6.954,0Zm13.953,-2.887l0,24.286l-6.999,0l0,-6.461c-1.596,2.582 -3.581,4.489 -5.968,5.721c-2.38,1.226 -5.293,1.843 -8.737,1.843c-4.359,0 -7.823,-1.226 -10.398,-3.672c-2.569,-2.439 -3.853,-5.715 -3.853,-9.821c0,-4.787 1.602,-8.4 4.806,-10.832c3.205,-2.433 7.985,-3.652 14.349,-3.652l9.801,0l0,-0.681c0,-3.218 -1.057,-5.708 -3.172,-7.466c-2.115,-1.765 -5.086,-2.647 -8.913,-2.647c-2.432,0 -4.8,0.292 -7.109,0.876c-2.303,0.584 -4.521,1.459 -6.649,2.62l0,-6.46c2.562,-0.986 5.04,-1.726 7.447,-2.219c2.413,-0.499 4.755,-0.746 7.031,-0.746c6.163,0 10.762,1.596 13.797,4.794c3.043,3.191 4.567,8.03 4.567,14.517Z" style="fill-rule:nonzero;"/><path d="M107.937,287.452l33.224,0l0,6.383l-26.303,30.597l26.303,0l0,5.585l-34.171,0l0,-6.383l26.303,-30.597l-25.356,0l0,-5.585Z" style="fill-rule:nonzero;"/><path d="M188.247,306.983l0,3.425l-32.154,0c0.305,4.813 1.758,8.478 4.353,11.001c2.601,2.523 6.214,3.782 10.852,3.782c2.685,0 5.287,-0.331 7.81,-0.986c2.523,-0.662 5.027,-1.648 7.505,-2.971l0,6.616c-2.504,1.064 -5.079,1.875 -7.713,2.433c-2.633,0.558 -5.306,0.837 -8.017,0.837c-6.792,0 -12.169,-1.979 -16.139,-5.929c-3.963,-3.957 -5.948,-9.302 -5.948,-16.042c0,-6.966 1.881,-12.499 5.643,-16.586c3.763,-4.093 8.842,-6.143 15.224,-6.143c5.728,0 10.256,1.843 13.59,5.534c3.327,3.684 4.994,8.698 4.994,15.029Zm-6.992,-2.05c-0.052,-3.827 -1.122,-6.882 -3.211,-9.159c-2.089,-2.283 -4.858,-3.425 -8.303,-3.425c-3.905,0 -7.025,1.103 -9.373,3.308c-2.342,2.206 -3.691,5.306 -4.048,9.315l24.935,-0.039Z" style="fill-rule:nonzero;"/><path d="M192.165,273.272l48.001,0l0,6.461l-20.141,0l0,50.284l-7.719,0l0,-50.284l-20.141,0l0,-6.461Z" style="fill-rule:nonzero;"/><path d="M282.66,304.323l0,25.694l-6.993,0l0,-25.467c0,-4.028 -0.785,-7.044 -2.354,-9.042c-1.577,-2.004 -3.931,-3.003 -7.071,-3.003c-3.775,0 -6.752,1.2 -8.932,3.606c-2.179,2.413 -3.269,5.689 -3.269,9.847l0,24.059l-7.032,0l0,-59.138l7.032,0l0,23.183c1.673,-2.563 3.639,-4.47 5.909,-5.741c2.271,-1.265 4.885,-1.901 7.849,-1.901c4.891,0 8.588,1.518 11.099,4.541c2.51,3.029 3.762,7.486 3.762,13.362Z" style="fill-rule:nonzero;"/><path d="M333.022,306.983l0,3.425l-32.154,0c0.304,4.813 1.751,8.478 4.352,11.001c2.595,2.523 6.214,3.782 10.846,3.782c2.685,0 5.293,-0.331 7.81,-0.986c2.523,-0.662 5.027,-1.648 7.511,-2.971l0,6.616c-2.51,1.064 -5.079,1.875 -7.719,2.433c-2.634,0.558 -5.306,0.837 -8.017,0.837c-6.792,0 -12.169,-1.979 -16.133,-5.929c-3.969,-3.957 -5.948,-9.302 -5.948,-16.042c0,-6.966 1.881,-12.499 5.644,-16.586c3.762,-4.093 8.834,-6.143 15.217,-6.143c5.728,0 10.255,1.843 13.589,5.534c3.335,3.684 5.002,8.698 5.002,15.029Zm-6.993,-2.05c-0.052,-3.827 -1.122,-6.882 -3.217,-9.159c-2.089,-2.283 -4.859,-3.425 -8.303,-3.425c-3.899,0 -7.025,1.103 -9.367,3.308c-2.348,2.206 -3.697,5.306 -4.047,9.315l24.934,-0.039Z" style="fill-rule:nonzero;"/><path d="M339.748,273.272l7.752,0l11.935,47.962l11.896,-47.962l8.628,0l11.935,47.962l11.896,-47.962l7.791,0l-14.251,56.745l-9.659,0l-11.968,-49.259l-12.091,49.259l-9.652,0l-14.212,-56.745Z" style="fill-rule:nonzero;"/><path d="M453.316,306.983l0,3.425l-32.155,0c0.299,4.813 1.752,8.478 4.346,11.001c2.602,2.523 6.215,3.782 10.853,3.782c2.685,0 5.293,-0.331 7.809,-0.986c2.524,-0.662 5.028,-1.648 7.512,-2.971l0,6.616c-2.51,1.064 -5.086,1.875 -7.719,2.433c-2.634,0.558 -5.306,0.837 -8.018,0.837c-6.791,0 -12.168,-1.979 -16.132,-5.929c-3.97,-3.957 -5.948,-9.302 -5.948,-16.042c0,-6.966 1.881,-12.499 5.643,-16.586c3.763,-4.093 8.835,-6.143 15.218,-6.143c5.728,0 10.255,1.843 13.589,5.534c3.334,3.684 5.002,8.698 5.002,15.029Zm-7,-2.05c-0.045,-3.827 -1.115,-6.882 -3.21,-9.159c-2.089,-2.283 -4.859,-3.425 -8.303,-3.425c-3.899,0 -7.025,1.103 -9.367,3.308c-2.348,2.206 -3.697,5.306 -4.047,9.315l24.927,-0.039Z" style="fill-rule:nonzero;"/><path d="M495.349,308.773c0,-5.144 -1.058,-9.178 -3.172,-12.11c-2.115,-2.926 -5.027,-4.385 -8.725,-4.385c-3.697,0 -6.603,1.459 -8.724,4.385c-2.115,2.932 -3.172,6.966 -3.172,12.11c0,5.144 1.057,9.179 3.172,12.104c2.121,2.926 5.027,4.392 8.724,4.392c3.698,0 6.61,-1.466 8.725,-4.392c2.114,-2.925 3.172,-6.96 3.172,-12.104Zm-23.793,-14.861c1.472,-2.536 3.327,-4.417 5.565,-5.649c2.245,-1.226 4.924,-1.843 8.044,-1.843c5.17,0 9.366,2.057 12.597,6.163c3.23,4.099 4.845,9.496 4.845,16.19c0,6.688 -1.615,12.085 -4.845,16.191c-3.231,4.106 -7.427,6.156 -12.597,6.156c-3.12,0 -5.799,-0.617 -8.044,-1.843c-2.238,-1.232 -4.093,-3.113 -5.565,-5.643l0,6.383l-7.032,0l0,-59.138l7.032,0l0,23.033Z" style="fill-rule:nonzero;"/></g><defs><radialGradient id="_Radial1" cx="0" cy="0" r="1" gradientUnits="userSpaceOnUse" gradientTransform="matrix(92.7606,-0.963455,0.937885,90.299,241.897,134.429)"><stop offset="0" style="stop-color:#85b2ee;stop-opacity:1"/><stop offset="1" style="stop-color:#2474d8;stop-opacity:1"/></radialGradient></defs></svg>