<?xml version="1.0" encoding="UTF-8" standalone="no"?><!DOCTYPE svg PUBLIC "-//W3C//DTD SVG 1.1//EN" "http://www.w3.org/Graphics/SVG/1.1/DTD/svg11.dtd"><svg width="100%" height="100%" viewBox="0 0 260 123" version="1.1" xmlns="http://www.w3.org/2000/svg" xmlns:xlink="http://www.w3.org/1999/xlink" xml:space="preserve" xmlns:serif="http://www.serif.com/" style="fill-rule:evenodd;clip-rule:evenodd;stroke-miterlimit:3.8637;"><g><path d="M48.856,82.977l-14.694,0l-8.166,21.483c-1.584,4.149 -3.328,5.853 -6.075,5.853c-2.211,0 -3.256,-1.306 -2.724,-3.409c0.157,-0.625 0.563,-1.761 0.984,-2.956l7.978,-20.972l-14.634,0l-8.313,21.825c-0.364,0.967 -0.651,1.877 -0.953,3.068c-1.118,4.434 -0.519,7.503 1.986,9.892c2.85,2.67 7.27,4.091 13.005,4.091c5.674,0 10.451,-1.421 14.617,-4.434c4.297,-3.069 5.959,-5.626 8.952,-13.469l8.037,-20.972Z" style="fill:none;stroke:#000;stroke-width:0.16px;"/><path d="M48.856,82.977l-14.694,0l-8.166,21.483c-1.584,4.149 -3.328,5.853 -6.075,5.853c-2.211,0 -3.256,-1.306 -2.724,-3.409c0.157,-0.625 0.563,-1.761 0.984,-2.956l7.978,-20.972l-14.634,0l-8.313,21.825c-0.364,0.967 -0.651,1.877 -0.953,3.068c-1.118,4.434 -0.519,7.503 1.986,9.892c2.85,2.67 7.27,4.091 13.005,4.091c5.674,0 10.451,-1.421 14.617,-4.434c4.297,-3.069 5.959,-5.626 8.952,-13.469l8.037,-20.972Z" style="fill:#fff;fill-rule:nonzero;stroke:#005290;stroke-width:1.56px;"/><path d="M9.813,99.384l14.393,0l-0.742,2.231l-14.392,0l0.741,-2.231Zm1.483,-4.462l14.393,0l-0.742,2.231l-14.392,0l0.741,-2.231Zm1.483,-4.461l14.392,0l-0.741,2.231l-14.392,0l0.741,-2.231Zm1.503,-4.522l14.392,0l-0.761,2.29l-14.392,0l0.761,-2.29Z" style="fill:#005290;fill-rule:nonzero;"/><path d="M32.214,99.384l14.393,0l-0.742,2.231l-14.392,0l0.741,-2.231Zm1.483,-4.462l14.392,0l-0.742,2.231l-14.391,0l0.741,-2.231Zm1.483,-4.461l14.392,0l-0.741,2.231l-14.393,0l0.742,-2.231Zm1.502,-4.522l14.392,0l-0.761,2.29l-14.391,0l0.76,-2.29Z" style="fill:#005290;fill-rule:nonzero;"/><path d="M66.439,111.69l0,-7.123l-1.852,0l0,16.626l1.852,0l0,-7.165l0.463,-0.463l6.812,7.628l2.559,0l-8.071,-8.886l7.806,-7.74l-2.491,0l-7.078,7.123Z" style="fill-rule:nonzero;"/><path d="M84.558,104.283c-4.74,0 -8.666,3.857 -8.666,8.62c0,4.786 3.925,8.578 8.666,8.578c4.741,0 8.666,-3.792 8.666,-8.578c0,-4.763 -3.925,-8.62 -8.666,-8.62Zm0,1.719c3.815,0 6.814,3.11 6.814,6.879c0,3.749 -3.043,6.88 -6.814,6.88c-3.77,0 -6.814,-3.131 -6.814,-6.88c0.001,-3.769 3,-6.879 6.814,-6.879Z"/><path d="M97.582,113.477l1.609,0c2.028,0 4.498,0.375 4.498,2.954c0,2.536 -2.183,3.044 -4.255,3.044l-1.852,0l0,-5.998Zm-1.854,7.716l3.859,0c3.286,0 5.953,-1.322 5.953,-4.629c0,-1.985 -1.168,-3.771 -3.153,-4.257c1.124,-0.748 1.63,-1.895 1.63,-3.24c0,-3.395 -2.534,-4.499 -5.556,-4.499l-2.734,0l0,16.625l0.001,0Zm1.854,-14.905l0.726,0c2.272,0 3.859,0.264 3.859,2.778c0,2.58 -1.785,2.822 -3.881,2.822l-0.705,0l0,-5.6l0.001,0Z"/><path d="M110.1,104.567l-1.852,0l0,16.626l6.439,0l0,-1.719l-4.587,0l0,-14.907Z" style="fill-rule:nonzero;"/><path d="M116.517,121.193l8.621,0l0,-1.719l-6.769,0l0,-6.527l6.57,0l0,-1.721l-6.57,0l0,-4.938l6.769,0l0,-1.721l-8.621,0l0,16.626Z" style="fill-rule:nonzero;"/><path d="M128.396,121.193l1.852,0l0,-12.81l12.966,13.56l0,-17.376l-1.853,0l0,12.878l-12.965,-13.582l0,17.33Z" style="fill-rule:nonzero;"/><path d="M148.373,119.474l9.083,-14.907l-11.002,0l0,1.721l7.915,0l-9.061,14.905l11.907,0l0,-1.719l-8.842,0Z" style="fill-rule:nonzero;"/><path d="M165.723,111.731c-0.682,0 -1.234,0.553 -1.234,1.213c0,0.683 0.552,1.257 1.234,1.257c0.684,0 1.236,-0.574 1.236,-1.257c-0.001,-0.66 -0.552,-1.213 -1.236,-1.213Z" style="fill-rule:nonzero;"/><path d="M177.052,104.567l-1.854,0l0,16.626l6.439,0l0,-1.719l-4.585,0l0,-14.907Z" style="fill-rule:nonzero;"/><path d="M193.5,116.475l1.962,4.718l2.051,0l-7.475,-17.418l-7.674,17.418l2.028,0l2.008,-4.718l7.1,0Zm-0.728,-1.721l-5.622,0l2.844,-6.659l2.778,6.659Z"/><path d="M199.43,121.193l1.852,0l0,-12.81l12.965,13.56l0,-17.376l-1.852,0l0,12.878l-12.965,-13.582l0,17.33Z" style="fill-rule:nonzero;"/><path d="M217.708,121.193l3.087,0c2.602,0 4.586,-0.33 6.571,-2.094c1.829,-1.631 2.711,-3.77 2.711,-6.196c0,-2.469 -0.86,-4.696 -2.756,-6.327c-1.962,-1.676 -3.991,-2.009 -6.483,-2.009l-3.131,0l0,16.626l0.001,0Zm1.852,-1.719l0,-13.186l1.344,0c1.964,0 3.64,0.264 5.161,1.61c1.433,1.256 2.161,3.086 2.161,4.983c0,1.852 -0.706,3.594 -2.073,4.872c-1.521,1.434 -3.219,1.721 -5.249,1.721l-1.344,0Z"/><path d="M241.802,116.475l1.963,4.718l2.049,0l-7.473,-17.418l-7.674,17.418l2.029,0l2.007,-4.718l7.099,0Zm-0.727,-1.721l-5.623,0l2.845,-6.659l2.778,6.659Z"/><path d="M248.768,104.567l-1.853,0l0,10.408c0,1.896 0.177,3.419 1.632,4.807c1.124,1.101 2.735,1.698 4.3,1.698c1.676,0 3.329,-0.661 4.476,-1.897c1.323,-1.365 1.455,-2.799 1.455,-4.608l0,-10.408l-1.852,0l0,9.902c0,1.301 0.066,2.756 -0.817,3.813c-0.771,0.928 -2.072,1.478 -3.263,1.478c-1.213,0 -2.623,-0.574 -3.351,-1.589c-0.772,-1.058 -0.728,-2.469 -0.728,-3.703l0,-9.901l0.001,0Z" style="fill-rule:nonzero;"/><path d="M66.395,82.518l-1.853,0l0,10.408c0,1.896 0.176,3.418 1.631,4.807c1.125,1.102 2.734,1.698 4.3,1.698c1.676,0 3.33,-0.662 4.477,-1.897c1.323,-1.367 1.455,-2.8 1.455,-4.608l0,-10.408l-1.852,0l0,9.901c0,1.301 0.066,2.756 -0.817,3.814c-0.77,0.927 -2.071,1.477 -3.263,1.477c-1.213,0 -2.624,-0.573 -3.352,-1.588c-0.771,-1.058 -0.727,-2.469 -0.727,-3.704l0,-9.9l0.001,0Z" style="fill-rule:nonzero;"/><path d="M86.739,99.144l1.853,0l0,-12.811l12.965,13.56l0,-17.375l-1.852,0l0,12.878l-12.966,-13.583l0,17.331Z" style="fill-rule:nonzero;"/><rect x="112.009" y="82.518" width="1.851" height="16.626"/><path d="M124.633,82.518l-2.007,0l6.747,17.618l6.748,-17.618l-2.007,0l-4.741,12.679l-4.74,-12.679Z" style="fill-rule:nonzero;"/><path d="M144.866,99.144l8.621,0l0,-1.721l-6.769,0l0,-6.526l6.57,0l0,-1.72l-6.57,0l0,-4.939l6.769,0l0,-1.72l-8.621,0l0,16.626Z" style="fill-rule:nonzero;"/><path d="M165.432,84.238l0.552,0c2.227,0 4.234,0.265 4.234,2.999c0,2.58 -2.118,2.977 -4.213,2.977l-0.573,0l0,-5.976Zm0,7.607l0.463,0l5.028,7.299l2.272,0l-5.292,-7.453c2.557,-0.22 4.167,-2.028 4.167,-4.586c0,-3.749 -2.933,-4.587 -6.086,-4.587l-2.403,0l0,16.626l1.852,0l0,-7.299l-0.001,0Z"/><path d="M191.492,84.812c-0.882,-1.632 -2.448,-2.58 -4.301,-2.58c-2.47,0 -4.652,1.653 -4.652,4.233c0,2.382 1.676,3.374 3.617,4.256l1.015,0.441c1.543,0.706 3.065,1.367 3.065,3.307c0,1.875 -1.632,3.242 -3.419,3.242c-1.785,0 -3.086,-1.389 -3.329,-3.086l-1.809,0.506c0.53,2.58 2.515,4.301 5.183,4.301c2.889,0 5.226,-2.227 5.226,-5.138c0,-2.646 -1.83,-3.727 -3.992,-4.675l-1.102,-0.484c-1.125,-0.507 -2.603,-1.168 -2.603,-2.603c0,-1.521 1.28,-2.58 2.757,-2.58c1.411,0 2.205,0.662 2.866,1.809l1.478,-0.949Z" style="fill-rule:nonzero;"/><rect x="201.78" y="82.518" width="1.852" height="16.626"/><path d="M218.351,84.238l4.057,0l0,-1.72l-9.922,0l0,1.72l4.013,0l0,14.906l1.852,0l0,-14.906Z" style="fill-rule:nonzero;"/><path d="M239.075,94.425l1.963,4.719l2.05,0l-7.474,-17.419l-7.674,17.419l2.028,0l2.007,-4.719l7.1,0Zm-0.728,-1.72l-5.623,0l2.845,-6.659l2.778,6.659Z"/><path d="M254.487,84.238l4.057,0l0,-1.72l-9.923,0l0,1.72l4.013,0l0,14.906l1.853,0l0,-14.906Z" style="fill-rule:nonzero;"/><path d="M231.105,82.449c-0.683,0 -1.235,0.552 -1.235,1.213c0,0.684 0.552,1.257 1.235,1.257c0.683,0 1.235,-0.573 1.235,-1.257c-0.001,-0.661 -0.552,-1.213 -1.235,-1.213Z" style="fill-rule:nonzero;"/><path d="M240.096,82.449c-0.684,0 -1.236,0.552 -1.236,1.213c0,0.684 0.552,1.257 1.236,1.257c0.683,0 1.234,-0.573 1.234,-1.257c-0.001,-0.661 -0.551,-1.213 -1.234,-1.213Z" style="fill-rule:nonzero;"/></g><g id="g3209"><g id="text2396"><g><path d="M11.26,58.359l0,4.819l1.863,0c0.69,0 1.223,-0.209 1.6,-0.627c0.376,-0.418 0.564,-1.013 0.564,-1.787c0,-0.767 -0.188,-1.36 -0.564,-1.778c-0.377,-0.418 -0.91,-0.627 -1.6,-0.627l-1.863,0Zm-1.482,-1.426l3.345,0c1.228,0 2.156,0.325 2.784,0.975c0.629,0.65 0.943,1.602 0.943,2.856c0,1.266 -0.314,2.223 -0.943,2.87c-0.628,0.647 -1.556,0.971 -2.784,0.971l-1.863,0l0,5.154l-1.482,0l0,-12.826Z" style="fill:#0c3875;fill-rule:nonzero;"/><path d="M25.271,64.553l0,0.773l-6.206,0c0.059,1.089 0.339,1.918 0.84,2.488c0.501,0.569 1.199,0.854 2.094,0.854c0.519,0 1.021,-0.074 1.508,-0.223c0.486,-0.149 0.969,-0.372 1.449,-0.67l0,1.495c-0.485,0.24 -0.981,0.424 -1.49,0.55c-0.508,0.126 -1.024,0.189 -1.547,0.189c-1.311,0 -2.349,-0.447 -3.114,-1.341c-0.766,-0.893 -1.148,-2.102 -1.148,-3.625c0,-1.575 0.363,-2.825 1.089,-3.75c0.726,-0.925 1.706,-1.388 2.938,-1.388c1.105,0 1.979,0.417 2.622,1.25c0.643,0.834 0.965,1.966 0.965,3.398Zm-1.35,-0.464c-0.009,-0.865 -0.216,-1.555 -0.62,-2.07c-0.403,-0.516 -0.937,-0.774 -1.602,-0.774c-0.753,0 -1.356,0.25 -1.809,0.748c-0.452,0.498 -0.712,1.2 -0.781,2.105l4.812,-0.009Z" style="fill:#0c3875;fill-rule:nonzero;"/><path d="M30.67,61.245c-0.724,0 -1.296,0.331 -1.717,0.993c-0.42,0.661 -0.63,1.568 -0.63,2.719c0,1.151 0.209,2.058 0.627,2.719c0.418,0.662 0.991,0.992 1.72,0.992c0.719,0 1.289,-0.332 1.709,-0.996c0.421,-0.665 0.631,-1.57 0.631,-2.715c0,-1.14 -0.21,-2.043 -0.631,-2.711c-0.42,-0.667 -0.99,-1.001 -1.709,-1.001Zm0,-1.34c1.174,0 2.095,0.447 2.765,1.34c0.67,0.894 1.005,2.131 1.005,3.712c0,1.575 -0.335,2.811 -1.005,3.707c-0.67,0.896 -1.591,1.345 -2.765,1.345c-1.179,0 -2.102,-0.449 -2.769,-1.345c-0.668,-0.896 -1.002,-2.132 -1.002,-3.707c0,-1.581 0.334,-2.818 1.002,-3.712c0.667,-0.893 1.59,-1.34 2.769,-1.34Z" style="fill:#0c3875;fill-rule:nonzero;"/><path d="M37.983,68.316l0,5.103l-1.357,0l0,-13.282l1.357,0l0,1.461c0.284,-0.573 0.642,-0.998 1.075,-1.276c0.433,-0.278 0.95,-0.417 1.552,-0.417c0.997,0 1.808,0.464 2.431,1.392c0.624,0.928 0.936,2.148 0.936,3.66c0,1.512 -0.312,2.732 -0.936,3.66c-0.623,0.928 -1.434,1.392 -2.431,1.392c-0.602,0 -1.119,-0.139 -1.552,-0.417c-0.433,-0.278 -0.791,-0.703 -1.075,-1.276Zm4.592,-3.359c0,-1.163 -0.204,-2.075 -0.612,-2.736c-0.408,-0.662 -0.97,-0.993 -1.684,-0.993c-0.714,0 -1.275,0.331 -1.683,0.993c-0.408,0.661 -0.613,1.573 -0.613,2.736c0,1.163 0.205,2.075 0.613,2.736c0.408,0.662 0.969,0.993 1.683,0.993c0.714,0 1.276,-0.331 1.684,-0.993c0.408,-0.661 0.612,-1.573 0.612,-2.736Z" style="fill:#0c3875;fill-rule:nonzero;"/><rect x="46.214" y="56.391" width="1.35" height="13.368" style="fill:#0c3875;fill-rule:nonzero;"/><path d="M57.415,64.553l0,0.773l-6.206,0c0.059,1.089 0.339,1.918 0.84,2.488c0.501,0.569 1.2,0.854 2.095,0.854c0.518,0 1.02,-0.074 1.507,-0.223c0.487,-0.149 0.969,-0.372 1.449,-0.67l0,1.495c-0.484,0.24 -0.981,0.424 -1.489,0.55c-0.509,0.126 -1.025,0.189 -1.548,0.189c-1.311,0 -2.349,-0.447 -3.114,-1.341c-0.765,-0.893 -1.148,-2.102 -1.148,-3.625c0,-1.575 0.363,-2.825 1.089,-3.75c0.726,-0.925 1.706,-1.388 2.938,-1.388c1.105,0 1.979,0.417 2.623,1.25c0.643,0.834 0.964,1.966 0.964,3.398Zm-1.35,-0.464c-0.009,-0.865 -0.216,-1.555 -0.619,-2.07c-0.404,-0.516 -0.938,-0.774 -1.603,-0.774c-0.753,0 -1.356,0.25 -1.808,0.748c-0.453,0.498 -0.713,1.2 -0.782,2.105l4.812,-0.009Z" style="fill:#0c3875;fill-rule:nonzero;"/><path d="M68.14,64.923c-1.091,0 -1.846,0.146 -2.267,0.438c-0.421,0.292 -0.631,0.79 -0.631,1.495c0,0.561 0.158,1.006 0.473,1.336c0.316,0.329 0.745,0.494 1.288,0.494c0.748,0 1.348,-0.311 1.8,-0.933c0.453,-0.621 0.679,-1.447 0.679,-2.478l0,-0.352l-1.342,0Zm2.692,-0.653l0,5.489l-1.35,0l0,-1.46c-0.308,0.584 -0.692,1.015 -1.152,1.293c-0.459,0.278 -1.022,0.417 -1.687,0.417c-0.841,0 -1.51,-0.277 -2.006,-0.829c-0.496,-0.553 -0.745,-1.293 -0.745,-2.221c0,-1.083 0.31,-1.899 0.928,-2.449c0.619,-0.55 1.542,-0.825 2.769,-0.825l1.893,0l0,-0.154c0,-0.728 -0.204,-1.29 -0.613,-1.688c-0.408,-0.399 -0.981,-0.598 -1.72,-0.598c-0.469,0 -0.926,0.066 -1.371,0.198c-0.445,0.132 -0.873,0.329 -1.284,0.593l0,-1.461c0.494,-0.223 0.973,-0.391 1.438,-0.502c0.464,-0.112 0.917,-0.168 1.357,-0.168c1.188,0 2.076,0.361 2.662,1.083c0.587,0.721 0.881,1.815 0.881,3.282Z" style="fill:#0c3875;fill-rule:nonzero;"/><path d="M80.441,63.952l0,5.807l-1.35,0l0,-5.756c0,-0.91 -0.151,-1.592 -0.454,-2.045c-0.304,-0.452 -0.758,-0.678 -1.365,-0.678c-0.728,0 -1.303,0.272 -1.724,0.816c-0.42,0.544 -0.63,1.286 -0.63,2.225l0,5.438l-1.357,0l0,-9.622l1.357,0l0,1.495c0.322,-0.578 0.703,-1.011 1.14,-1.297c0.438,-0.287 0.943,-0.43 1.515,-0.43c0.944,0 1.658,0.342 2.142,1.027c0.484,0.684 0.726,1.691 0.726,3.02Z" style="fill:#0c3875;fill-rule:nonzero;"/><path d="M88.54,61.598l0,-5.207l1.349,0l0,13.368l-1.349,0l0,-1.443c-0.284,0.573 -0.642,0.998 -1.075,1.276c-0.433,0.278 -0.952,0.417 -1.559,0.417c-0.993,0 -1.801,-0.464 -2.424,-1.392c-0.624,-0.928 -0.935,-2.148 -0.935,-3.66c0,-1.512 0.311,-2.732 0.935,-3.66c0.623,-0.928 1.431,-1.392 2.424,-1.392c0.607,0 1.126,0.139 1.559,0.417c0.433,0.278 0.791,0.703 1.075,1.276Zm-4.6,3.359c0,1.163 0.204,2.075 0.613,2.736c0.408,0.662 0.969,0.993 1.683,0.993c0.714,0 1.277,-0.331 1.687,-0.993c0.411,-0.661 0.617,-1.573 0.617,-2.736c0,-1.163 -0.206,-2.075 -0.617,-2.736c-0.41,-0.662 -0.973,-0.993 -1.687,-0.993c-0.714,0 -1.275,0.331 -1.683,0.993c-0.409,0.661 -0.613,1.573 -0.613,2.736Z" style="fill:#0c3875;fill-rule:nonzero;"/><path d="M97.504,56.933l1.481,0l0,5.421l4.915,-5.421l1.907,0l-5.435,5.979l5.824,6.847l-1.951,0l-5.26,-6.177l0,6.177l-1.481,0l0,-12.826Z" style="fill:#0c3875;fill-rule:nonzero;"/><path d="M114.126,63.952l0,5.807l-1.35,0l0,-5.756c0,-0.91 -0.152,-1.592 -0.455,-2.045c-0.303,-0.452 -0.758,-0.678 -1.364,-0.678c-0.729,0 -1.303,0.272 -1.724,0.816c-0.421,0.544 -0.631,1.286 -0.631,2.225l0,5.438l-1.357,0l0,-9.622l1.357,0l0,1.495c0.323,-0.578 0.703,-1.011 1.141,-1.297c0.438,-0.287 0.942,-0.43 1.515,-0.43c0.943,0 1.657,0.342 2.142,1.027c0.484,0.684 0.726,1.691 0.726,3.02Z" style="fill:#0c3875;fill-rule:nonzero;"/><path d="M120.002,61.245c-0.724,0 -1.296,0.331 -1.717,0.993c-0.421,0.661 -0.631,1.568 -0.631,2.719c0,1.151 0.209,2.058 0.627,2.719c0.418,0.662 0.992,0.992 1.721,0.992c0.718,0 1.288,-0.332 1.709,-0.996c0.42,-0.665 0.631,-1.57 0.631,-2.715c0,-1.14 -0.211,-2.043 -0.631,-2.711c-0.421,-0.667 -0.991,-1.001 -1.709,-1.001Zm0,-1.34c1.173,0 2.095,0.447 2.765,1.34c0.67,0.894 1.005,2.131 1.005,3.712c0,1.575 -0.335,2.811 -1.005,3.707c-0.67,0.896 -1.592,1.345 -2.765,1.345c-1.179,0 -2.102,-0.449 -2.77,-1.345c-0.667,-0.896 -1.001,-2.132 -1.001,-3.707c0,-1.581 0.334,-2.818 1.001,-3.712c0.668,-0.893 1.591,-1.34 2.77,-1.34Z" style="fill:#0c3875;fill-rule:nonzero;"/><path d="M125.224,60.137l1.35,0l1.687,7.509l1.68,-7.509l1.592,0l1.687,7.509l1.68,-7.509l1.35,0l-2.15,9.622l-1.591,0l-1.768,-7.886l-1.776,7.886l-1.591,0l-2.15,-9.622Z" style="fill:#0c3875;fill-rule:nonzero;"/><rect x="138.296" y="56.391" width="1.35" height="13.368" style="fill:#0c3875;fill-rule:nonzero;"/><path d="M149.498,64.553l0,0.773l-6.206,0c0.058,1.089 0.338,1.918 0.84,2.488c0.501,0.569 1.199,0.854 2.094,0.854c0.518,0 1.021,-0.074 1.507,-0.223c0.487,-0.149 0.97,-0.372 1.449,-0.67l0,1.495c-0.484,0.24 -0.98,0.424 -1.489,0.55c-0.509,0.126 -1.025,0.189 -1.548,0.189c-1.31,0 -2.348,-0.447 -3.114,-1.341c-0.765,-0.893 -1.148,-2.102 -1.148,-3.625c0,-1.575 0.363,-2.825 1.09,-3.75c0.726,-0.925 1.705,-1.388 2.937,-1.388c1.106,0 1.98,0.417 2.623,1.25c0.643,0.834 0.965,1.966 0.965,3.398Zm-1.35,-0.464c-0.01,-0.865 -0.217,-1.555 -0.62,-2.07c-0.404,-0.516 -0.938,-0.774 -1.603,-0.774c-0.753,0 -1.356,0.25 -1.808,0.748c-0.452,0.498 -0.713,1.2 -0.781,2.105l4.812,-0.009Z" style="fill:#0c3875;fill-rule:nonzero;"/><path d="M157.119,61.598l0,-5.207l1.35,0l0,13.368l-1.35,0l0,-1.443c-0.284,0.573 -0.642,0.998 -1.075,1.276c-0.432,0.278 -0.952,0.417 -1.558,0.417c-0.993,0 -1.801,-0.464 -2.425,-1.392c-0.623,-0.928 -0.935,-2.148 -0.935,-3.66c0,-1.512 0.312,-2.732 0.935,-3.66c0.624,-0.928 1.432,-1.392 2.425,-1.392c0.606,0 1.126,0.139 1.558,0.417c0.433,0.278 0.791,0.703 1.075,1.276Zm-4.599,3.359c0,1.163 0.204,2.075 0.612,2.736c0.409,0.662 0.97,0.993 1.684,0.993c0.714,0 1.276,-0.331 1.687,-0.993c0.411,-0.661 0.616,-1.573 0.616,-2.736c0,-1.163 -0.205,-2.075 -0.616,-2.736c-0.411,-0.662 -0.973,-0.993 -1.687,-0.993c-0.714,0 -1.275,0.331 -1.684,0.993c-0.408,0.661 -0.612,1.573 -0.612,2.736Z" style="fill:#0c3875;fill-rule:nonzero;"/><path d="M166.655,64.837c0,-1.146 -0.202,-2.034 -0.605,-2.664c-0.403,-0.63 -0.969,-0.945 -1.698,-0.945c-0.724,0 -1.288,0.315 -1.691,0.945c-0.403,0.63 -0.605,1.518 -0.605,2.664c0,1.139 0.202,2.024 0.605,2.654c0.403,0.63 0.967,0.945 1.691,0.945c0.729,0 1.295,-0.315 1.698,-0.945c0.403,-0.63 0.605,-1.515 0.605,-2.654Zm1.35,3.728c0,1.638 -0.311,2.857 -0.932,3.656c-0.621,0.799 -1.572,1.198 -2.853,1.198c-0.475,0 -0.922,-0.041 -1.343,-0.124c-0.42,-0.083 -0.828,-0.211 -1.225,-0.382l0,-1.538c0.397,0.252 0.788,0.438 1.174,0.558c0.386,0.12 0.78,0.181 1.181,0.181c0.885,0 1.548,-0.271 1.988,-0.812c0.44,-0.542 0.66,-1.359 0.66,-2.453l0,-0.782c-0.279,0.567 -0.636,0.991 -1.071,1.271c-0.435,0.281 -0.956,0.421 -1.562,0.421c-1.008,0 -1.819,-0.449 -2.436,-1.348c-0.616,-0.9 -0.924,-2.091 -0.924,-3.574c0,-1.49 0.308,-2.684 0.924,-3.583c0.617,-0.899 1.428,-1.349 2.436,-1.349c0.606,0 1.127,0.14 1.562,0.421c0.435,0.281 0.792,0.705 1.071,1.272l0,-1.461l1.35,0l0,8.428Z" style="fill:#0c3875;fill-rule:nonzero;"/><path d="M177.812,64.553l0,0.773l-6.205,0c0.058,1.089 0.338,1.918 0.84,2.488c0.501,0.569 1.199,0.854 2.094,0.854c0.518,0 1.021,-0.074 1.507,-0.223c0.487,-0.149 0.97,-0.372 1.449,-0.67l0,1.495c-0.484,0.24 -0.98,0.424 -1.489,0.55c-0.509,0.126 -1.025,0.189 -1.548,0.189c-1.31,0 -2.348,-0.447 -3.114,-1.341c-0.765,-0.893 -1.148,-2.102 -1.148,-3.625c0,-1.575 0.363,-2.825 1.09,-3.75c0.726,-0.925 1.705,-1.388 2.937,-1.388c1.106,0 1.98,0.417 2.623,1.25c0.643,0.834 0.964,1.966 0.964,3.398Zm-1.349,-0.464c-0.01,-0.865 -0.217,-1.555 -0.62,-2.07c-0.404,-0.516 -0.938,-0.774 -1.603,-0.774c-0.753,0 -1.356,0.25 -1.808,0.748c-0.452,0.498 -0.713,1.2 -0.781,2.105l4.812,-0.009Z" style="fill:#0c3875;fill-rule:nonzero;"/><path d="M184.862,56.933l1.995,0l4.856,10.73l0,-10.73l1.438,0l0,12.826l-1.995,0l-4.856,-10.73l0,10.73l-1.438,0l0,-12.826Z" style="fill:#0c3875;fill-rule:nonzero;"/><path d="M203.069,64.553l0,0.773l-6.206,0c0.058,1.089 0.338,1.918 0.84,2.488c0.501,0.569 1.199,0.854 2.094,0.854c0.518,0 1.021,-0.074 1.507,-0.223c0.487,-0.149 0.97,-0.372 1.449,-0.67l0,1.495c-0.484,0.24 -0.98,0.424 -1.489,0.55c-0.509,0.126 -1.024,0.189 -1.548,0.189c-1.31,0 -2.348,-0.447 -3.114,-1.341c-0.765,-0.893 -1.148,-2.102 -1.148,-3.625c0,-1.575 0.363,-2.825 1.09,-3.75c0.726,-0.925 1.705,-1.388 2.938,-1.388c1.105,0 1.979,0.417 2.622,1.25c0.643,0.834 0.965,1.966 0.965,3.398Zm-1.35,-0.464c-0.01,-0.865 -0.217,-1.555 -0.62,-2.07c-0.403,-0.516 -0.938,-0.774 -1.603,-0.774c-0.753,0 -1.356,0.25 -1.808,0.748c-0.452,0.498 -0.713,1.2 -0.781,2.105l4.812,-0.009Z" style="fill:#0c3875;fill-rule:nonzero;"/><path d="M206.619,57.405l0,2.732l2.78,0l0,1.229l-2.78,0l0,5.223c0,0.785 0.092,1.289 0.275,1.512c0.183,0.224 0.556,0.335 1.119,0.335l1.386,0l0,1.323l-1.386,0c-1.042,0 -1.761,-0.227 -2.157,-0.683c-0.396,-0.455 -0.594,-1.284 -0.594,-2.487l0,-5.223l-0.99,0l0,-1.229l0.99,0l0,-2.732l1.357,0Z" style="fill:#0c3875;fill-rule:nonzero;"/><path d="M210.389,60.137l1.35,0l1.687,7.509l1.68,-7.509l1.592,0l1.687,7.509l1.68,-7.509l1.35,0l-2.15,9.622l-1.591,0l-1.768,-7.886l-1.775,7.886l-1.592,0l-2.15,-9.622Z" style="fill:#0c3875;fill-rule:nonzero;"/><path d="M226.645,61.245c-0.724,0 -1.296,0.331 -1.717,0.993c-0.42,0.661 -0.631,1.568 -0.631,2.719c0,1.151 0.21,2.058 0.628,2.719c0.418,0.662 0.991,0.992 1.72,0.992c0.719,0 1.288,-0.332 1.709,-0.996c0.421,-0.665 0.631,-1.57 0.631,-2.715c0,-1.14 -0.21,-2.043 -0.631,-2.711c-0.421,-0.667 -0.99,-1.001 -1.709,-1.001Zm0,-1.34c1.174,0 2.095,0.447 2.765,1.34c0.67,0.894 1.005,2.131 1.005,3.712c0,1.575 -0.335,2.811 -1.005,3.707c-0.67,0.896 -1.591,1.345 -2.765,1.345c-1.179,0 -2.102,-0.449 -2.769,-1.345c-0.668,-0.896 -1.002,-2.132 -1.002,-3.707c0,-1.581 0.334,-2.818 1.002,-3.712c0.667,-0.893 1.59,-1.34 2.769,-1.34Z" style="fill:#0c3875;fill-rule:nonzero;"/><path d="M237.413,61.615c-0.151,-0.103 -0.316,-0.179 -0.495,-0.228c-0.178,-0.049 -0.375,-0.073 -0.59,-0.073c-0.763,0 -1.349,0.291 -1.757,0.872c-0.409,0.582 -0.613,1.416 -0.613,2.505l0,5.068l-1.357,0l0,-9.622l1.357,0l0,1.495c0.284,-0.584 0.653,-1.018 1.108,-1.302c0.455,-0.283 1.007,-0.425 1.658,-0.425c0.093,0 0.195,0.007 0.308,0.022c0.112,0.014 0.237,0.035 0.374,0.064l0.007,1.624Z" style="fill:#0c3875;fill-rule:nonzero;"/><path d="M238.778,56.391l1.357,0l0,7.896l4.027,-4.15l1.724,0l-4.357,4.502l4.54,5.12l-1.76,0l-4.174,-4.699l0,4.699l-1.357,0l0,-13.368Z" style="fill:#0c3875;fill-rule:nonzero;"/><path d="M252.767,60.421l0,1.495c-0.382,-0.23 -0.778,-0.401 -1.189,-0.516c-0.411,-0.114 -0.836,-0.172 -1.276,-0.172c-0.67,0 -1.173,0.121 -1.508,0.361c-0.335,0.241 -0.502,0.601 -0.502,1.083c0,0.366 0.12,0.654 0.359,0.863c0.24,0.209 0.722,0.408 1.445,0.597l0.463,0.12c0.958,0.241 1.639,0.58 2.042,1.018c0.404,0.439 0.606,1.05 0.606,1.835c0,0.893 -0.302,1.601 -0.906,2.122c-0.604,0.521 -1.434,0.782 -2.491,0.782c-0.44,0 -0.898,-0.05 -1.375,-0.151c-0.477,-0.1 -0.979,-0.25 -1.508,-0.451l0,-1.632c0.499,0.303 0.991,0.531 1.475,0.683c0.484,0.152 0.963,0.228 1.438,0.228c0.635,0 1.124,-0.128 1.467,-0.383c0.342,-0.255 0.513,-0.614 0.513,-1.078c0,-0.43 -0.123,-0.759 -0.37,-0.988c-0.247,-0.229 -0.789,-0.45 -1.625,-0.662l-0.469,-0.128c-0.837,-0.207 -1.441,-0.523 -1.812,-0.95c-0.372,-0.426 -0.558,-1.012 -0.558,-1.757c0,-0.905 0.274,-1.603 0.822,-2.096c0.547,-0.493 1.325,-0.739 2.332,-0.739c0.499,0 0.969,0.043 1.409,0.129c0.44,0.086 0.846,0.215 1.218,0.387Z" style="fill:#0c3875;fill-rule:nonzero;"/></g></g><g id="text2400"><g><path d="M7.988,7.291l5.109,0l7.864,37.695l7.838,-37.695l5.685,0l7.864,37.695l7.839,-37.695l5.134,0l-9.392,44.595l-6.361,0l-7.889,-38.711l-7.964,38.711l-6.361,0l-9.366,-44.595Z" style="fill:#0c3875;fill-rule:nonzero;"/><path d="M82.819,33.785l0,2.688l-21.187,0c0.2,3.784 1.156,6.666 2.867,8.647c1.712,1.982 4.095,2.972 7.151,2.972c1.769,0 3.485,-0.258 5.146,-0.776c1.661,-0.518 3.31,-1.295 4.946,-2.33l0,5.197c-1.653,0.837 -3.347,1.474 -5.084,1.912c-1.736,0.438 -3.497,0.657 -5.284,0.657c-4.474,0 -8.018,-1.553 -10.631,-4.66c-2.613,-3.106 -3.919,-7.308 -3.919,-12.605c0,-5.476 1.239,-9.822 3.719,-13.038c2.479,-3.215 5.822,-4.823 10.03,-4.823c3.773,0 6.757,1.448 8.953,4.346c2.195,2.897 3.293,6.835 3.293,11.813Zm-4.608,-1.613c-0.033,-3.007 -0.739,-5.406 -2.116,-7.199c-1.378,-1.792 -3.202,-2.688 -5.472,-2.688c-2.571,0 -4.629,0.866 -6.174,2.599c-1.544,1.732 -2.433,4.172 -2.667,7.318l16.429,-0.03Z" style="fill:#0c3875;fill-rule:nonzero;"/><path d="M112.997,8.754l0,5.885c-1.92,-1.096 -3.732,-1.912 -5.435,-2.45c-1.703,-0.537 -3.347,-0.806 -4.933,-0.806c-2.755,0 -4.88,0.637 -6.374,1.911c-1.494,1.275 -2.241,3.087 -2.241,5.437c0,1.971 0.496,3.46 1.49,4.465c0.993,1.006 2.876,1.817 5.647,2.435l3.056,0.746c3.773,0.857 6.557,2.365 8.352,4.526c1.795,2.16 2.692,5.052 2.692,8.677c0,4.321 -1.215,7.596 -3.644,9.827c-2.429,2.23 -5.99,3.345 -10.681,3.345c-1.77,0 -3.652,-0.239 -5.648,-0.717c-1.995,-0.478 -4.061,-1.185 -6.198,-2.121l0,-6.212c2.054,1.374 4.066,2.409 6.036,3.106c1.97,0.697 3.907,1.045 5.81,1.045c2.888,0 5.117,-0.677 6.687,-2.031c1.569,-1.354 2.354,-3.285 2.354,-5.794c0,-2.191 -0.564,-3.903 -1.691,-5.138c-1.127,-1.235 -2.976,-2.16 -5.547,-2.778l-3.08,-0.717c-3.774,-0.896 -6.503,-2.3 -8.19,-4.211c-1.686,-1.912 -2.529,-4.57 -2.529,-7.975c0,-3.943 1.164,-7.05 3.493,-9.32c2.33,-2.27 5.539,-3.405 9.63,-3.405c1.753,0 3.539,0.189 5.359,0.568c1.82,0.378 3.682,0.946 5.585,1.702Z" style="fill:#0c3875;fill-rule:nonzero;"/><path d="M117.956,7.291l31.63,0l0,5.078l-13.273,0l0,39.517l-5.084,0l0,-39.517l-13.273,0l0,-5.078Z" style="fill:#0c3875;fill-rule:nonzero;"/></g></g><path id="path2417" d="M247.519,57.303c-0.583,-0.728 -2.44,-2.105 -3.612,-2.678c-1.049,-0.513 -1.97,-0.711 -2.82,-0.606c-1.329,0.164 -2.066,1.085 -2.069,2.584c-0.001,0.688 -0.029,0.785 -0.232,0.785c-0.41,0 -2.3,-1.386 -2.3,-1.686c0,-0.034 0.196,-0.264 0.435,-0.512c0.621,-0.641 0.831,-1.089 1.013,-2.161c0.13,-0.77 0.087,-2.294 -0.09,-3.152c-0.551,-2.671 -2.332,-5.79 -4.379,-7.667c-1.101,-1.01 -3.92,-2.819 -8.467,-5.433c-1.094,-0.629 -2.051,-1.09 -2.262,-1.09c-0.258,0 -0.472,0.242 -0.799,0.902c-0.387,0.78 -0.445,1.288 -0.238,2.092c0.202,0.784 0.55,1.379 1.454,2.489c0.703,0.863 1.428,1.595 3.044,3.073c1.525,1.393 2.22,1.947 3.426,2.731c1.659,1.077 3.035,1.683 4.291,1.889c0.954,0.157 1.091,0.228 1.23,0.634c0.171,0.499 0.451,1.629 0.494,1.992c0.036,0.298 0.029,0.329 -0.072,0.328c-0.149,-0.002 -0.512,-0.213 -1.48,-0.861c-1.637,-1.096 -2.943,-1.559 -4.247,-1.508c-0.508,0.02 -0.62,0.046 -1.019,0.232c-0.545,0.255 -1,0.683 -1.282,1.205c-0.334,0.619 -0.426,0.992 -0.461,1.867c-0.038,0.964 0.062,1.629 0.399,2.628c0.263,0.782 0.266,0.806 0.139,0.931c-0.196,0.193 -1.075,0.049 -1.871,-0.307c-0.621,-0.277 -0.651,-0.357 -0.474,-1.28c0.404,-2.104 -0.829,-6.038 -2.845,-9.079c-0.702,-1.058 -1.236,-1.637 -2.11,-2.284c-1.632,-1.208 -3.277,-2.015 -4.535,-2.225c-0.566,-0.095 -1.496,-0.032 -2.712,0.182c-1.788,0.314 -2.02,0.329 -2.954,0.181c-0.449,-0.071 -1.28,-0.154 -1.847,-0.185c-2.647,-0.144 -3.849,0.317 -4.892,1.876c-1.25,1.868 -1.364,4.25 -0.343,7.165c0.581,1.66 1.443,3.035 2.735,4.365c0.555,0.571 0.618,0.701 0.453,0.92c-0.118,0.156 -1.044,0.811 -1.576,1.115c-0.541,0.309 -0.626,0.241 -0.913,-0.729c-0.373,-1.262 -0.622,-1.826 -1.138,-2.583c-0.956,-1.402 -2.419,-2.321 -4.396,-2.762c-0.646,-0.144 -2.176,-0.173 -2.894,-0.055c-1.48,0.244 -2.394,0.686 -3.482,1.683c-0.333,0.304 -0.656,0.553 -0.719,0.553c-0.379,0 -1.615,-1.562 -1.49,-1.883c0.044,-0.114 0.222,-0.183 0.896,-0.351c1.035,-0.256 1.84,-0.649 2.823,-1.375c1.385,-1.024 2.636,-2.474 3.673,-4.256c0.417,-0.715 0.684,-1.359 0.952,-2.292c0.46,-1.603 0.507,-2.369 0.186,-3.044c-0.393,-0.828 -1.221,-1.443 -3.985,-2.959c-2.379,-1.305 -3.976,-2.032 -5.596,-2.545c-0.808,-0.256 -2.134,-0.593 -2.658,-0.676c-0.528,-0.083 -0.595,-0.014 -0.271,0.28c0.451,0.41 0.596,0.96 0.368,1.4c-0.251,0.485 -0.678,0.768 -1.378,0.912c-0.775,0.161 -1.623,-0.02 -2.348,-0.499c-0.468,-0.31 -0.535,-0.389 -0.634,-0.749c-0.095,-0.348 0.007,-0.657 0.329,-0.995c0.317,-0.334 0.682,-0.499 1.3,-0.586c0.253,-0.036 0.483,-0.086 0.51,-0.111c0.162,-0.145 -1.665,-0.411 -4.232,-0.615c-0.827,-0.066 -1.873,-0.098 -3.152,-0.098c-1.89,0 -2.336,0.03 -3.399,0.226l-0.541,0.1l-0.578,-0.492c-1.257,-1.072 -1.992,-1.533 -2.931,-1.84c-1.617,-0.528 -3.04,-0.512 -5.358,0.061c-1.847,0.456 -3.007,0.92 -4.661,1.863c-1.108,0.633 -2.319,1.531 -3.172,2.354c-1.075,1.039 -1.639,1.836 -2.104,2.978c-0.166,0.406 -0.34,0.77 -0.387,0.809c-0.055,0.045 -0.497,0.087 -1.246,0.118c-1.974,0.083 -1.972,0.083 -1.998,0.01c-0.038,-0.104 0.335,-0.481 1.265,-1.279c1.222,-1.048 1.525,-1.437 1.846,-2.366c0.108,-0.315 0.14,-0.53 0.14,-0.957c0.001,-0.708 -0.121,-0.968 -0.733,-1.567c-0.706,-0.69 -1.595,-1.128 -2.665,-1.311c-0.658,-0.113 -2.339,-0.083 -3.217,0.058c-0.644,0.103 -0.87,0.06 -0.805,-0.154c0.087,-0.288 0.363,-0.674 0.767,-1.074c0.483,-0.477 0.491,-0.479 1.293,-0.33c0.667,0.124 3.861,0.181 4.985,0.089c2.489,-0.205 5.923,-0.909 7.679,-1.575c2.301,-0.872 4.342,-2.701 4.984,-4.465c0.188,-0.516 0.194,-1.386 0.014,-1.866c-0.333,-0.888 -1.131,-1.617 -2.463,-2.25c-1.099,-0.523 -2.122,-0.816 -2.847,-0.815c-0.664,0 -3.424,0.498 -5.135,0.926c-1.237,0.309 -2.68,0.861 -4.331,1.656c-1.92,0.924 -3.22,1.768 -4.384,2.845c-0.55,0.509 -0.694,0.571 -1.309,0.564c-0.647,-0.007 -1.626,-0.12 -1.818,-0.209c-0.081,-0.038 -0.147,-0.106 -0.147,-0.15c0,-0.088 0.146,-0.166 1.565,-0.837c1.153,-0.546 1.88,-1.026 2.562,-1.691c0.645,-0.63 0.91,-1.088 0.91,-1.576c0,-0.272 -0.025,-0.337 -0.206,-0.534c-0.491,-0.536 -1.428,-0.758 -3.388,-0.803c-1.316,-0.031 -1.649,-0.067 -1.649,-0.18c0,-0.113 0.445,-0.471 1.072,-0.864l0.666,-0.418l0.412,0.115c2.009,0.559 5.169,0.524 8.792,-0.098c1.173,-0.202 2.414,-0.462 5.25,-1.099c2.904,-0.654 3.202,-0.732 3.773,-0.99c0.813,-0.368 1.165,-0.752 1.892,-2.065c0.235,-0.425 0.717,-1.252 1.07,-1.837c0.745,-1.236 0.954,-1.628 1.047,-1.971c0.149,-0.544 -0.055,-0.659 -1.224,-0.695c-1.844,-0.057 -5.519,0.226 -9.656,0.745c-1.582,0.198 -1.741,0.205 -1.87,0.078c-0.082,-0.081 -0.084,-0.11 -0.015,-0.213c0.136,-0.201 0.469,-0.268 2.218,-0.445c2.842,-0.289 5.53,-0.655 8.812,-1.199c2.522,-0.418 2.569,-0.421 3.752,-0.236c0.528,0.082 1.266,0.178 1.639,0.213c0.372,0.034 1.539,0.23 2.592,0.436c1.053,0.205 3.094,0.584 4.536,0.841c2.789,0.498 2.984,0.533 5.444,0.986c2.453,0.452 3.251,0.505 6.132,0.411c2.578,-0.084 3.276,-0.18 3.318,-0.458c0.044,-0.287 -0.731,-0.604 -3.082,-1.263c-2.48,-0.695 -3.036,-0.908 -2.705,-1.033c0.147,-0.055 0.735,-0.041 1.118,0.027c0.193,0.034 1.039,0.229 1.882,0.434c3.068,0.743 5.895,1.261 9.156,1.678c1.49,0.191 1.415,0.195 1.184,-0.064c-0.164,-0.184 -0.177,-0.221 -0.102,-0.295c0.117,-0.115 0.644,-0.034 2.134,0.332c1.487,0.365 1.847,0.534 1.46,0.687c-0.652,0.257 -1.462,0.302 -2.757,0.151c-0.847,-0.099 -2.325,-0.138 -2.577,-0.068c-0.259,0.071 -0.204,0.244 0.206,0.646c0.651,0.638 1.328,1.022 2.902,1.645c0.956,0.379 1.961,0.71 2.153,0.71c0.208,0 0.687,-0.625 1.137,-1.483c0.239,-0.457 0.264,-0.676 0.121,-1.089c-0.137,-0.395 -0.09,-0.468 0.272,-0.421c0.645,0.084 3.933,1.097 4.533,1.397c0.302,0.15 0.379,0.287 0.193,0.343c-0.056,0.017 -0.434,0.058 -0.839,0.09c-1.046,0.084 -1.518,0.242 -1.934,0.647c-0.287,0.279 -0.38,0.496 -0.41,0.961l-0.028,0.416l0.406,0.118c0.662,0.192 2.034,0.522 2.684,0.645c1.255,0.237 3.927,0.441 4.278,0.326c0.464,-0.152 -0.489,-0.828 -2.873,-2.037c-1.009,-0.511 -1.116,-0.627 -0.611,-0.655c0.449,-0.026 1.003,0.18 2.508,0.933c2.524,1.262 6.404,2.799 9.767,3.869c1.969,0.627 2.708,0.961 2.708,1.224c0,0.176 -0.218,0.144 -1.399,-0.205c-2.302,-0.682 -4.532,-1.122 -5.046,-0.994c-0.123,0.03 -0.153,0.072 -0.153,0.214c0,0.54 2.317,2.116 11.635,7.914c5.242,3.261 6.142,3.753 8.943,4.881c2.413,0.973 2.503,0.998 2.666,0.753c0.08,-0.12 0.084,-0.205 0.03,-0.589c-0.035,-0.247 -0.051,-0.461 -0.036,-0.476c0.051,-0.05 1.676,1.098 1.915,1.354c0.226,0.242 0.239,0.274 0.239,0.62c0,0.32 0.024,0.401 0.205,0.665c0.512,0.75 3.538,3.74 5.421,5.358c0.875,0.752 1.226,1.037 1.822,1.479c0.612,0.454 1.139,0.934 1.245,1.136c0.109,0.209 0.111,0.567 0.002,0.609c-0.16,0.06 -0.547,-0.206 -1.626,-1.117c-1.355,-1.144 -2.01,-1.666 -3.211,-2.554c-2.826,-2.091 -5.278,-3.565 -6.308,-3.792c-0.531,-0.118 -0.711,0.118 -0.656,0.859c0.061,0.831 0.483,1.998 1.433,3.964c0.302,0.626 0.566,1.244 0.587,1.373c0.047,0.29 -0.015,0.331 -0.593,0.387c-0.582,0.056 -1.137,0.195 -1.423,0.357c-0.768,0.433 -1.376,1.733 -1.376,2.944c0,2.109 1.519,5.035 4.267,8.22c1.192,1.381 3.283,3.327 4.629,4.307c0.511,0.372 0.943,0.756 0.943,0.839c0,0.051 -1.448,0.258 -1.738,0.248c-0.07,-0.003 -0.221,-0.132 -0.367,-0.315Zm-8.294,-16.546c0.543,-0.137 0.946,-0.392 1.24,-0.785c0.477,-0.638 0.586,-1.149 0.408,-1.906c-0.36,-1.526 -1.135,-2.938 -2.604,-4.745c-0.585,-0.72 -1.637,-1.777 -1.718,-1.728c-0.036,0.022 -0.065,0.11 -0.066,0.196c-0.002,0.294 -0.207,0.425 -0.673,0.429c-1.279,0.012 -3.616,-1.779 -3.327,-2.548c0.121,-0.322 0.548,-0.319 1.455,0.01c0.334,0.121 0.626,0.201 0.649,0.178c0.197,-0.198 -5.979,-4.559 -8.865,-6.26c-0.926,-0.546 -1.029,-0.583 -1.382,-0.5c-1.055,0.249 -0.81,1.131 0.824,2.967c1.319,1.481 2.699,2.605 5.137,4.184c1.973,1.278 4.138,2.425 5.536,2.932c0.918,0.333 1.194,0.544 1.516,1.162c0.296,0.568 0.327,0.822 0.102,0.822c-0.187,0 -0.771,-0.288 -1.598,-0.788c-1.219,-0.737 -2.573,-1.352 -3.497,-1.59c-1.036,-0.266 -1.617,-0.296 -2.327,-0.117c-0.752,0.19 -1.007,0.458 -1.07,1.125c-0.045,0.467 0.042,0.829 0.379,1.585c0.156,0.35 0.248,0.632 0.226,0.69c-0.121,0.31 -2.217,-0.415 -2.452,-0.849c-0.051,-0.093 -0.038,-0.196 0.058,-0.471c0.147,-0.417 0.128,-0.764 -0.089,-1.616c-0.331,-1.301 -0.83,-2.173 -2.259,-3.944c-0.465,-0.576 -1.475,-1.66 -1.849,-1.983c-1.657,-1.433 -3.682,-2.386 -6.023,-2.834c-1.104,-0.212 -3.008,-0.248 -3.237,-0.061c-0.209,0.172 -0.005,1.106 0.397,1.811c0.389,0.683 1.872,2.316 4.106,4.52c1.55,1.53 2.292,2.117 4.361,3.451c3.117,2.01 5.927,3.611 7.894,4.496c1.774,0.799 4.257,1.685 4.696,1.677l0.223,-0.004l-0.295,-0.104c-0.664,-0.233 -1.529,-0.774 -2.011,-1.259c-0.569,-0.571 -0.782,-1.255 -0.489,-1.563c0.184,-0.192 0.409,-0.241 0.875,-0.192c1.351,0.144 3.182,1.595 3.049,2.417c-0.044,0.271 -0.349,0.561 -0.682,0.65c-0.132,0.035 -0.241,0.087 -0.241,0.115c0,0.101 1.269,0.434 2.003,0.526c0.48,0.06 1.16,0.019 1.62,-0.096Zm-20.514,-11.135c-0.649,-0.173 -2.175,-1.064 -2.434,-1.422c-0.071,-0.099 -0.138,-0.304 -0.157,-0.48c-0.028,-0.271 -0.014,-0.328 0.118,-0.478l0.149,-0.171l0.727,0.003c0.561,0.003 0.831,0.033 1.186,0.132c1.158,0.321 1.823,0.888 1.903,1.624c0.078,0.713 -0.543,1.043 -1.492,0.792Zm-8.088,10.105c0.341,0.004 1.255,0.017 2.033,0.029c1.298,0.02 1.469,0.011 2.091,-0.113c3.351,-0.668 5.427,-2.42 5.442,-4.594c0.005,-0.692 -0.103,-0.886 -0.923,-1.66c-2.58,-2.435 -4.745,-3.521 -7.557,-3.791c-2.691,-0.258 -5.325,1.221 -6.072,3.409c-0.112,0.328 -0.165,0.639 -0.199,1.172c-0.026,0.399 -0.066,0.771 -0.088,0.827c-0.093,0.228 -0.512,0.185 -1.649,-0.171c-0.679,-0.213 -1.326,-0.473 -1.325,-0.534c0.001,-0.095 0.254,-0.382 0.72,-0.815c0.632,-0.588 0.847,-0.972 0.925,-1.652c0.105,-0.925 -0.16,-1.775 -0.858,-2.744c-0.893,-1.24 -3.35,-2.474 -5.883,-2.953c-1.421,-0.27 -1.68,-0.366 -1.679,-0.627c0.001,-0.189 0.271,-0.715 0.402,-0.784c0.15,-0.079 0.746,0.069 2.521,0.625c2.965,0.93 5.42,1.401 7.873,1.512c1.772,0.08 3.08,-0.065 4.189,-0.464c0.632,-0.227 0.957,-0.47 1.128,-0.844c0.066,-0.143 0.071,-0.259 0.024,-0.544c-0.162,-0.992 -1.136,-2.143 -2.97,-3.508c-1.862,-1.385 -3.909,-2.281 -6.127,-2.681c-0.743,-0.134 -2.99,-0.151 -3.682,-0.028c-1.796,0.319 -3.521,1.061 -4.208,1.81c-0.125,0.136 -0.33,0.464 -0.456,0.729c-0.126,0.265 -0.251,0.495 -0.278,0.511c-0.087,0.053 -2.14,-0.53 -2.584,-0.734c-0.268,-0.123 -0.333,-0.29 -0.148,-0.381c0.057,-0.028 0.289,-0.098 0.516,-0.156c1.789,-0.456 2.346,-1.788 1.193,-2.855c-0.575,-0.533 -1.601,-1.133 -2.621,-1.532c-0.958,-0.375 -1.775,-0.598 -3.273,-0.894c-0.284,-0.057 -0.581,-0.152 -0.659,-0.212c-0.124,-0.096 -0.134,-0.131 -0.081,-0.281c0.033,-0.094 0.156,-0.253 0.272,-0.354c0.203,-0.176 0.226,-0.181 0.628,-0.155c0.293,0.02 0.724,0.128 1.448,0.364c3.793,1.236 8.265,1.948 12.313,1.959c1.904,0.005 2.578,-0.133 2.818,-0.577c0.156,-0.289 0.009,-0.755 -0.367,-1.164c-0.243,-0.266 -0.986,-0.645 -2.233,-1.141c-1.975,-0.785 -4.519,-1.539 -4.519,-1.339c0,0.017 0.068,0.132 0.151,0.256c0.192,0.285 0.178,0.555 -0.037,0.713c-0.486,0.355 -2.309,0.155 -3.399,-0.373c-0.39,-0.189 -0.78,-0.555 -0.78,-0.732c0,-0.114 0.182,-0.302 0.398,-0.411c0.315,-0.16 0.066,-0.253 -1.017,-0.378c-2.223,-0.257 -3.798,-0.322 -4.986,-0.206c-2.265,0.222 -4.796,0.898 -5.287,1.413c-0.37,0.387 -0.138,1.131 0.549,1.765c0.54,0.497 1.393,1.037 2.479,1.569c1.933,0.946 3.602,1.527 5.449,1.895c0.969,0.193 1.335,0.3 1.375,0.404c0.041,0.105 -0.309,0.803 -0.537,1.07l-0.168,0.198l-0.262,-0.091c-0.144,-0.051 -0.662,-0.277 -1.151,-0.502c-1.951,-0.9 -3.779,-1.29 -6.091,-1.302c-1.026,-0.005 -1.206,0.009 -1.679,0.13c-1.027,0.263 -2.294,0.959 -2.905,1.595c-0.312,0.325 -0.569,0.778 -0.635,1.12c-0.053,0.271 -0.203,0.372 -0.603,0.408c-0.623,0.056 -1.912,-0.183 -2.101,-0.388c-0.131,-0.144 -0.071,-0.236 0.301,-0.458c1.383,-0.827 2.328,-2.273 2.246,-3.437c-0.104,-1.461 -1.715,-2.457 -4.551,-2.813c-0.927,-0.117 -2.995,-0.133 -4.167,-0.033c-1.631,0.139 -2.459,0.407 -3.293,1.065c-0.947,0.747 -1.324,1.536 -1.178,2.46c0.158,1.002 0.859,1.84 2.334,2.792c0.454,0.292 0.854,0.556 0.89,0.587c0.046,0.04 0.04,0.19 -0.021,0.54c-0.197,1.129 -0.076,2.54 0.318,3.696c0.329,0.965 0.974,2.01 1.132,1.832c0.026,-0.029 0.081,-0.169 0.122,-0.311c0.041,-0.142 0.151,-0.328 0.245,-0.414c0.39,-0.359 1.525,-0.655 2.528,-0.659c0.524,-0.002 0.664,0.018 0.913,0.13c0.692,0.312 1.024,0.883 0.8,1.373c-0.131,0.287 -0.299,0.443 -0.682,0.631c-0.408,0.2 -0.962,0.331 -1.559,0.369c-0.549,0.035 -0.968,-0.029 -1.462,-0.223c-0.172,-0.068 -0.328,-0.107 -0.348,-0.088c-0.106,0.105 0.726,1.028 1.504,1.669c1.617,1.334 3.045,1.972 4.8,2.145c0.74,0.074 1.314,0.04 2.22,-0.128c1.495,-0.278 2.739,-0.752 3.45,-1.315c0.465,-0.367 1.021,-1.103 1.263,-1.67c0.168,-0.396 0.199,-0.545 0.223,-1.07c0.03,-0.69 -0.055,-1.124 -0.338,-1.721c-0.675,-1.426 -2.059,-2.577 -3.957,-3.29c-0.312,-0.118 -0.616,-0.267 -0.676,-0.332c-0.098,-0.107 -0.1,-0.133 -0.022,-0.269c0.092,-0.16 1.257,-0.876 1.692,-1.04c0.329,-0.123 0.416,-0.076 0.839,0.452c1.386,1.73 3.878,2.486 8.194,2.487c2.111,0.001 2.988,-0.133 3.992,-0.609c0.726,-0.345 0.913,-0.371 1.317,-0.189c0.417,0.187 1.028,0.649 1.138,0.859c0.081,0.153 0.079,0.172 -0.02,0.224c-0.059,0.031 -0.291,0.086 -0.515,0.123c-3.347,0.542 -3.896,0.77 -5.268,2.183c-1.249,1.286 -1.592,2.167 -1.592,4.087c0,1.105 0.058,1.401 0.357,1.843c0.713,1.052 4.623,3.104 10.184,5.346c1.705,0.688 2.474,0.949 2.561,0.868c0.03,-0.027 -0.118,-0.231 -0.344,-0.47c-0.568,-0.605 -0.734,-0.971 -0.624,-1.373c0.162,-0.594 1.027,-0.976 2.095,-0.927c0.64,0.03 1.089,0.187 1.517,0.531c0.445,0.358 0.654,0.73 0.682,1.21c0.019,0.338 0.002,0.425 -0.129,0.645c-0.19,0.319 -0.317,0.401 -0.919,0.593c-0.264,0.084 -0.471,0.181 -0.46,0.216c0.069,0.203 3.279,0.984 4.463,1.085c0.308,0.027 0.957,0.031 1.443,0.011c0.486,-0.021 1.162,-0.035 1.502,-0.031Zm5.067,-1.715c-0.211,-0.058 -0.488,-0.15 -0.615,-0.205c-0.6,-0.257 -1.312,-0.881 -1.538,-1.349c-0.233,-0.481 -0.083,-1.062 0.346,-1.342c0.216,-0.14 0.288,-0.154 0.801,-0.152c0.907,0.003 1.699,0.316 2.328,0.921c0.386,0.371 0.568,0.712 0.603,1.133c0.077,0.906 -0.731,1.323 -1.925,0.994Zm-48.835,-19.996c-0.764,-0.163 -1.182,-0.466 -1.182,-0.857c0,-0.484 1.16,-0.983 2.477,-1.065c1.257,-0.078 2.319,0.343 2.211,0.876c-0.159,0.78 -2.074,1.352 -3.506,1.046Zm52.485,5.217c1.64,-0.294 2.83,-0.873 2.83,-1.376c0,-0.348 -0.933,-1.103 -2.754,-2.228c-1.416,-0.876 -2.74,-1.579 -2.975,-1.58c-0.135,-0.001 -0.13,0.029 0.04,0.25c0.2,0.259 0.244,0.474 0.131,0.644c-0.143,0.214 -0.453,0.286 -1.065,0.247c-1.003,-0.063 -2.218,-0.566 -2.876,-1.189c-0.289,-0.273 -0.302,-0.514 -0.04,-0.731c0.136,-0.113 0.247,-0.15 0.447,-0.15c1.239,0 -2.25,-0.948 -4.901,-1.331c-1.088,-0.157 -1.496,-0.157 -1.7,0.001c-0.682,0.529 -0.284,1.612 1.132,3.079c1.725,1.787 4.198,3.529 5.577,3.929c0.78,0.226 2.61,0.512 3.888,0.608c0.543,0.041 1.466,-0.029 2.266,-0.173Zm-1.51,-0.543c-1.328,-0.342 -2.375,-1.077 -2.375,-1.667c-0.001,-0.306 0.202,-0.395 0.881,-0.384c1.788,0.028 3.854,1.287 3.163,1.926c-0.285,0.264 -0.942,0.313 -1.669,0.125Zm-7.663,-2.671c-1.426,-0.363 -2.559,-1.2 -2.322,-1.714c0.091,-0.195 0.289,-0.257 0.823,-0.256c1.09,0.001 2.841,0.681 3.219,1.25c0.161,0.242 0.101,0.547 -0.138,0.706c-0.17,0.112 -0.273,0.131 -0.678,0.127c-0.262,-0.003 -0.669,-0.054 -0.904,-0.113Zm-37.307,-7.251c1.107,-0.073 2.534,-0.237 2.534,-0.291c0,-0.023 -0.113,-0.06 -0.251,-0.081c-0.609,-0.093 -1.16,-0.28 -1.379,-0.467c-0.205,-0.174 -0.217,-0.201 -0.154,-0.34c0.078,-0.167 0.307,-0.301 0.716,-0.418c1.368,-0.393 3.121,-0.344 3.635,0.1c0.233,0.202 0.255,0.369 0.078,0.591c-0.124,0.155 -0.117,0.326 0.012,0.326c0.306,0 3.59,-0.762 4.381,-1.017c0.65,-0.209 0.759,-0.309 0.458,-0.423c-1.062,-0.401 -6.692,-1.315 -7.33,-1.19l-0.178,0.035l0.04,0.316c0.033,0.256 0.021,0.336 -0.063,0.427c-0.154,0.168 -0.62,0.282 -1.424,0.346c-1.463,0.118 -2.958,-0.185 -2.961,-0.599c-0.002,-0.354 -0.277,-0.379 -1.089,-0.098c-0.789,0.273 -1.176,0.496 -1.535,0.888c-0.329,0.358 -0.514,0.738 -0.584,1.201c-0.057,0.376 0.033,0.563 0.295,0.611c0.738,0.137 3.314,0.181 4.799,0.083Z" style="fill:#ffae00;fill-rule:nonzero;"/></g></svg>