<?xml version="1.0" encoding="UTF-8" standalone="no"?>
<!-- Created with Inkscape (http://www.inkscape.org/) -->

<svg
   xmlns:dc="http://purl.org/dc/elements/1.1/"
   xmlns:cc="http://creativecommons.org/ns#"
   xmlns:rdf="http://www.w3.org/1999/02/22-rdf-syntax-ns#"
   xmlns:svg="http://www.w3.org/2000/svg"
   xmlns="http://www.w3.org/2000/svg"
   xmlns:sodipodi="http://sodipodi.sourceforge.net/DTD/sodipodi-0.dtd"
   xmlns:inkscape="http://www.inkscape.org/namespaces/inkscape"
   width="10cm"
   height="10cm"
   viewBox="0 0 354.33071 354.3307"
   id="svg2"
   version="1.1"
   inkscape:version="0.91 r13725"
   sodipodi:docname="Settings.svg"
   inkscape:export-filename="C:\Users\Raphael\Git\GazeTheWeb\Browse\Client\content\icons\Settings.png"
   inkscape:export-xdpi="89.916"
   inkscape:export-ydpi="89.916">
  <defs
     id="defs4" />
  <sodipodi:namedview
     id="base"
     pagecolor="#ffffff"
     bordercolor="#666666"
     borderopacity="1.0"
     inkscape:pageopacity="0.0"
     inkscape:pageshadow="2"
     inkscape:zoom="0.98994949"
     inkscape:cx="181.51718"
     inkscape:cy="149.49341"
     inkscape:document-units="px"
     inkscape:current-layer="layer1"
     showgrid="true"
     units="cm"
     inkscape:snap-bbox="true"
     inkscape:bbox-paths="true"
     inkscape:snap-page="true"
     inkscape:bbox-nodes="true"
     inkscape:snap-bbox-edge-midpoints="true"
     inkscape:snap-bbox-midpoints="true"
     inkscape:window-width="1184"
     inkscape:window-height="900"
     inkscape:window-x="-7"
     inkscape:window-y="0"
     inkscape:window-maximized="0"
     inkscape:snap-object-midpoints="true"
     inkscape:snap-center="true"
     inkscape:snap-to-guides="false"
     inkscape:object-paths="false"
     inkscape:snap-intersection-paths="false"
     inkscape:object-nodes="true"
     inkscape:snap-smooth-nodes="false"
     inkscape:snap-midpoints="false"
     inkscape:snap-grids="false">
    <inkscape:grid
       type="xygrid"
       id="grid4686" />
  </sodipodi:namedview>
  <metadata
     id="metadata7">
    <rdf:RDF>
      <cc:Work
         rdf:about="">
        <dc:format>image/svg+xml</dc:format>
        <dc:type
           rdf:resource="http://purl.org/dc/dcmitype/StillImage" />
        <dc:title />
      </cc:Work>
    </rdf:RDF>
  </metadata>
  <g
     inkscape:label="Layer 1"
     inkscape:groupmode="layer"
     id="layer1"
     transform="translate(0,-698.03155)">
    <path
       style="fill:#f2f2f2;fill-opacity:1;stroke:none;stroke-width:3;stroke-miterlimit:4;stroke-dasharray:none;stroke-opacity:1"
       d="m 157.16535,775.19689 0,26.8418 a 78.004921,78.004921 0 0 0 -18.33398,6.54101 l -18.23438,-18.23437 -28.285152,28.2832 16.771482,16.77148 a 78.004921,78.004921 0 0 0 -9.328126,19.79688 l -22.58984,0 0,40 21.17188,0 a 78.004921,78.004921 0 0 0 8.607416,21.93554 l -14.632812,14.63282 28.285152,28.28515 14.61524,-14.61718 a 78.004921,78.004921 0 0 0 21.95312,8.62304 l 0,21.14063 40,0 0,-22.65625 a 78.004921,78.004921 0 0 0 18.52148,-8.41602 l 16.98633,16.98633 28.28516,-28.28516 -17.91992,-17.91796 a 78.004921,78.004921 0 0 0 6.93359,-18.21094 l 27.19336,0 0,-40 -27.82812,0 a 78.004921,78.004921 0 0 0 -7.6211,-17.76563 l 20.30274,-20.30273 -28.28516,-28.2832 -20.28516,20.28515 a 78.004921,78.004921 0 0 0 -16.2832,-7.17383 l 0,-28.25976 -40,0 z m 17.16602,64.49414 a 38.34074,38.34074 0 0 1 38.33984,38.3418 38.34074,38.34074 0 0 1 -38.33984,38.33984 38.34074,38.34074 0 0 1 -38.3418,-38.33984 38.34074,38.34074 0 0 1 38.3418,-38.3418 z"
       id="path4146"
       inkscape:connector-curvature="0" />
  </g>
</svg>
